<?xml version="1.0" encoding="UTF-8" standalone="no"?>
<!-- Created with Inkscape (http://www.inkscape.org/) -->

<svg
   xmlns:dc="http://purl.org/dc/elements/1.1/"
   xmlns:cc="http://creativecommons.org/ns#"
   xmlns:rdf="http://www.w3.org/1999/02/22-rdf-syntax-ns#"
   xmlns:svg="http://www.w3.org/2000/svg"
   xmlns="http://www.w3.org/2000/svg"
   xmlns:sodipodi="http://sodipodi.sourceforge.net/DTD/sodipodi-0.dtd"
   xmlns:inkscape="http://www.inkscape.org/namespaces/inkscape"
   width="115.88036mm"
   height="115.77975mm"
   viewBox="0 0 115.88036 115.77975"
   version="1.1"
   id="svg5585"
   inkscape:version="0.92.4 (5da689c313, 2019-01-14)"
   sodipodi:docname="gear.svg">
  <title
     id="title5603">gear</title>
  <defs
     id="defs5579" />
  <sodipodi:namedview
     id="base"
     pagecolor="#ffffff"
     bordercolor="#666666"
     borderopacity="1.0"
     inkscape:pageopacity="0.0"
     inkscape:pageshadow="2"
     inkscape:zoom="2"
     inkscape:cx="157.27158"
     inkscape:cy="188.93066"
     inkscape:document-units="mm"
     inkscape:current-layer="layer1"
     showgrid="false"
     fit-margin-top="0"
     fit-margin-left="0"
     fit-margin-right="0"
     fit-margin-bottom="0"
     inkscape:window-width="1920"
     inkscape:window-height="1017"
     inkscape:window-x="-8"
     inkscape:window-y="-8"
     inkscape:window-maximized="1" />
  <metadata
     id="metadata5582">
    <rdf:RDF>
      <cc:Work
         rdf:about="">
        <dc:format>image/svg+xml</dc:format>
        <dc:type
           rdf:resource="http://purl.org/dc/dcmitype/StillImage" />
        <dc:title>gear</dc:title>
        <cc:license
           rdf:resource="http://creativecommons.org/licenses/by-nc/4.0/" />
        <dc:publisher>
          <cc:Agent>
            <dc:title>vladimir.kolchuzhin@ieee.org</dc:title>
          </cc:Agent>
        </dc:publisher>
      </cc:Work>
      <cc:License
         rdf:about="http://creativecommons.org/licenses/by-nc/4.0/">
        <cc:permits
           rdf:resource="http://creativecommons.org/ns#Reproduction" />
        <cc:permits
           rdf:resource="http://creativecommons.org/ns#Distribution" />
        <cc:requires
           rdf:resource="http://creativecommons.org/ns#Notice" />
        <cc:requires
           rdf:resource="http://creativecommons.org/ns#Attribution" />
        <cc:prohibits
           rdf:resource="http://creativecommons.org/ns#CommercialUse" />
        <cc:permits
           rdf:resource="http://creativecommons.org/ns#DerivativeWorks" />
      </cc:License>
    </rdf:RDF>
  </metadata>
  <g
     inkscape:label="Ebene 1"
     inkscape:groupmode="layer"
     id="layer1"
     transform="translate(-40.333639,-71.288698)">
    <rect
       style="fill:#00ff00;fill-opacity:1;stroke:#0fff0f;stroke-width:2.36538386;stroke-opacity:1"
       id="rect5561"
       width="113.51498"
       height="113.41437"
       x="41.516331"
       y="72.47139" />
    <path
       id="path5469"
       d="M 84.080685,129.17357 V 72.471381 H 41.516305 V 185.88583 H 155.03136 v -42.5342 H 98.268805 c -7.82861,0 -14.18812,-6.34944 -14.18812,-14.17806"
       style="fill:#0000ff;stroke:#2727ff;stroke-width:0.0100625px;stroke-linecap:butt;stroke-linejoin:round;stroke-miterlimit:4;stroke-dasharray:none;stroke-opacity:1"
       inkscape:connector-curvature="0" />
    <path
       id="path5477"
       d="m 89.755935,117.83313 c 0.68426,-0.51319 1.40875,-0.95594 2.17351,-1.33831 5.88655,-2.93825 13.020865,-1.449 17.237045,3.59231 4.21619,5.05138 4.40738,12.33662 0.46287,17.59931 h 45.402 V 72.471381 H 89.755935 v 45.361749"
       style="fill:#0000ff;stroke:#2727ff;stroke-width:0.0100625px;stroke-linecap:butt;stroke-linejoin:round;stroke-miterlimit:4;stroke-dasharray:none;stroke-opacity:1"
       inkscape:connector-curvature="0" />
    <path
       id="path5485"
       d="m 100.82468,129.17357 c 0,1.40875 -1.137065,2.55587 -2.555875,2.55587 -1.40875,0 -2.54581,-1.14712 -2.54581,-2.55587 0,-1.40875 1.13706,-2.54581 2.54581,-2.54581 1.41881,0 2.555875,1.13706 2.555875,2.54581"
       style="fill:#0000ff;stroke:#2727ff;stroke-width:0.0100625px;stroke-linecap:butt;stroke-linejoin:round;stroke-miterlimit:4;stroke-dasharray:none;stroke-opacity:1"
       inkscape:connector-curvature="0" />
    <path
       id="path5493"
       d="m 87.773615,125.60138 3.20995,3.00869 v 1.32825 l -3.20995,3.00869 2.093,3.61243 4.2162,-1.27793 1.14713,0.66412 1.00625,4.28662 h 4.175915 l 0.9962,-4.28662 1.13706,-0.66412 4.22625,1.27793 2.093,-3.61243 -3.23006,-3.00869 v -1.32825 l 3.23006,-3.00869 -2.093,-3.61244 -4.22625,1.27794 -1.14712,-0.66413 -0.99619,-4.28662 h -4.175935 l -0.99618,4.28662 -1.14713,0.66413 -4.2162,-1.27794 -2.093,3.61244 m 7.65758,3.57219 c 0,-3.77344 5.685295,-3.77344 5.685295,0 0,3.7835 -5.685295,3.7835 -5.685295,0"
       style="fill:#ff0000;stroke:#ff2929;stroke-width:0.0100625px;stroke-linecap:butt;stroke-linejoin:round;stroke-miterlimit:4;stroke-dasharray:none;stroke-opacity:1"
       inkscape:connector-curvature="0" />
    <rect
       style="fill:#00ff00;fill-opacity:1;stroke:#0fff0f;stroke-width:0.26458332;stroke-opacity:1"
       id="rect5563"
       width="0.24555388"
       height="0.1929352"
       x="41.615208"
       y="72.472397" />
  </g>
</svg>
