<?xml version="1.0" encoding="UTF-8" standalone="no"?>
<!-- Created with Inkscape (http://www.inkscape.org/) -->

<svg
   xmlns:dc="http://purl.org/dc/elements/1.1/"
   xmlns:cc="http://creativecommons.org/ns#"
   xmlns:rdf="http://www.w3.org/1999/02/22-rdf-syntax-ns#"
   xmlns:svg="http://www.w3.org/2000/svg"
   xmlns="http://www.w3.org/2000/svg"
   xmlns:sodipodi="http://sodipodi.sourceforge.net/DTD/sodipodi-0.dtd"
   xmlns:inkscape="http://www.inkscape.org/namespaces/inkscape"
   width="300.02646mm"
   height="600.02649mm"
   viewBox="0 0 3000.2645 6000.2646"
   version="1.1"
   id="svg5698"
   inkscape:version="0.92.4 (5da689c313, 2019-01-14)"
   sodipodi:docname="Hall_structures.svg">
  <title
     id="title6621">Hall structures</title>
  <defs
     id="defs5692">
    <marker
       style="overflow:visible"
       refY="0"
       refX="0"
       orient="auto"
       id="DistanceX">
      <path
         id="path6245"
         style="stroke:#000000;stroke-width:0.5"
         d="M 3,-3 -3,3 M 0,-5 V 5"
         inkscape:connector-curvature="0" />
    </marker>
    <pattern
       y="0"
       x="0"
       width="8"
       patternUnits="userSpaceOnUse"
       id="Hatch"
       height="8">
      <path
         id="path6248"
         stroke-width="0.25"
         stroke="#000000"
         linecap="square"
         d="M8 4 l-4,4" />
      <path
         id="path6250"
         stroke-width="0.25"
         stroke="#000000"
         linecap="square"
         d="M6 2 l-4,4" />
      <path
         id="path6252"
         stroke-width="0.25"
         stroke="#000000"
         linecap="square"
         d="M4 0 l-4,4" />
    </pattern>
    <symbol
       id="*Model_Space" />
    <symbol
       id="*Paper_Space" />
    <symbol
       id="*Paper_Space0" />
  </defs>
  <sodipodi:namedview
     id="base"
     pagecolor="#ffffff"
     bordercolor="#666666"
     borderopacity="1.0"
     inkscape:pageopacity="0.0"
     inkscape:pageshadow="2"
     inkscape:zoom="0.64"
     inkscape:cx="205.31456"
     inkscape:cy="1944.6096"
     inkscape:document-units="mm"
     inkscape:current-layer="g6611"
     showgrid="false"
     fit-margin-top="0"
     fit-margin-left="0"
     fit-margin-right="0"
     fit-margin-bottom="0"
     inkscape:window-width="1920"
     inkscape:window-height="1017"
     inkscape:window-x="-8"
     inkscape:window-y="-8"
     inkscape:window-maximized="1"
     showguides="false"
     scale-x="10" />
  <metadata
     id="metadata5695">
    <rdf:RDF>
      <cc:Work
         rdf:about="">
        <dc:format>image/svg+xml</dc:format>
        <dc:type
           rdf:resource="http://purl.org/dc/dcmitype/StillImage" />
        <dc:title>Hall structures</dc:title>
        <dc:publisher>
          <cc:Agent>
            <dc:title>vladimir.kolchuzhin@ieee.org</dc:title>
          </cc:Agent>
        </dc:publisher>
        <cc:license
           rdf:resource="http://creativecommons.org/licenses/by-nc-sa/4.0/" />
        <dc:description>Hall structures</dc:description>
      </cc:Work>
      <cc:License
         rdf:about="http://creativecommons.org/licenses/by-nc-sa/4.0/">
        <cc:permits
           rdf:resource="http://creativecommons.org/ns#Reproduction" />
        <cc:permits
           rdf:resource="http://creativecommons.org/ns#Distribution" />
        <cc:requires
           rdf:resource="http://creativecommons.org/ns#Notice" />
        <cc:requires
           rdf:resource="http://creativecommons.org/ns#Attribution" />
        <cc:prohibits
           rdf:resource="http://creativecommons.org/ns#CommercialUse" />
        <cc:permits
           rdf:resource="http://creativecommons.org/ns#DerivativeWorks" />
        <cc:requires
           rdf:resource="http://creativecommons.org/ns#ShareAlike" />
      </cc:License>
    </rdf:RDF>
  </metadata>
  <g
     inkscape:label="Ebene 1"
     inkscape:groupmode="layer"
     id="layer1"
     transform="translate(1252.9359,2706.912)">
    <g
       id="g6611"
       transform="matrix(0.26458333,0,0,0.26458333,-1252.8036,-3003.7797)">
      <path
         inkscape:connector-curvature="0"
         d="m 944.88189,21909.921 944.88191,-944.882 944.8819,944.882 -944.8819,944.882 z"
         style="fill:#ffcc00;stroke:#000000"
         id="path6456" />
      <path
         inkscape:connector-curvature="0"
         d="m 4724.4094,22854.803 v -1889.764 h 1889.7638 v 1889.764 z"
         style="fill:#ffcc00;stroke:#000000"
         id="path6448" />
      <path
         inkscape:connector-curvature="0"
         d="m 8503.937,22344.567 510.2362,510.236 h 869.2914 l 510.2364,-510.236 v -869.291 l -510.2364,-510.237 h -869.2914 l -510.2362,510.237 z"
         style="fill:#ffcc00;stroke:#000000"
         id="path6462" />
      <path
         inkscape:connector-curvature="0"
         d="m 8503.937,19075.276 v -1889.764 h 1889.764 v 1889.764 z"
         style="fill:#ffcc00;stroke:#000000"
         id="path6454" />
      <path
         inkscape:connector-curvature="0"
         d="m 6180.1247,18925.285 -284.0617,-568.12 568.1197,284.062 a 944.88374,944.88374 0 0 0 0,-1021.667 l -568.1235,284.062 284.0617,-568.123 a 944.88422,944.88422 0 0 0 -1021.6629,0 l 284.0617,568.12 L 4874.4,17619.56 a 944.88507,944.88507 0 0 0 0,1021.667 l 568.1197,-284.062 -284.0617,568.12 a 944.88507,944.88507 0 0 0 1021.6667,0 z"
         style="fill:#ffcc00;stroke:#000000"
         id="path6476" />
      <path
         inkscape:connector-curvature="0"
         d="m 944.88189,18319.37 h 755.90551 v 755.906 h 377.9528 v -755.906 h 755.9055 v -377.953 h -755.9055 v -755.905 h -377.9528 v 755.905 H 944.88189 Z"
         style="fill:#ffcc00;stroke:#000000"
         id="path6480" />
      <path
         inkscape:connector-curvature="0"
         d="m 944.88189,15428.031 944.88191,-1889.763 944.8819,1889.763 z"
         style="fill:#ffcc00;stroke:#000000"
         id="path6450" />
      <path
         inkscape:connector-curvature="0"
         d="m 4535.4331,14917.795 v -1133.858 h 2267.7165 v 1133.858 z"
         style="fill:#ffcc00;stroke:#000000"
         id="path6464" />
      <path
         inkscape:connector-curvature="0"
         d="m 10393.701,14350.866 a 944.882,944.882 0 1 0 -1889.764,0 944.882,944.882 0 1 0 1889.764,0 z"
         style="fill:#ffcc00;stroke:#000000"
         id="path6458" />
      <path
         inkscape:connector-curvature="0"
         d="m 4535.4331,11327.244 h 2267.7165 v -377.953 h -944.8819 v -188.976 h 944.8819 v -377.953 h -944.8819 v -188.976 h 944.8819 V 9815.4331 H 4535.4331 v 377.9529 h 944.8819 v 188.976 h -944.8819 v 377.953 h 944.8819 v 188.976 h -944.8819 z"
         style="fill:#ffcc00;stroke:#000000"
         id="path6472" />
      <path
         inkscape:connector-curvature="0"
         d="m 1511.811,10382.362 v -377.953 H 755.90551 v 1133.859 H 1511.811 v -377.953 h 188.9764 v 377.953 h 377.9528 v -377.953 h 188.9763 v 377.953 h 755.9055 v -1133.859 h -755.9055 v 377.953 h -188.9763 v -377.953 h -377.9528 v 377.953 z"
         style="fill:#ffcc00;stroke:#000000"
         id="path6470" />
      <path
         inkscape:connector-curvature="0"
         d="M 8314.9606,3579.2126 V 2445.3543 h 2267.7164 v 1133.8583 z"
         style="fill:#ffcc00;stroke:#000000"
         id="path6478" />
      <path
         inkscape:connector-curvature="0"
         d="m 827.02488,2336.795 1261.39082,-437.2838 765.1276,791.5124 v 1152.7559 h -925.9842 l -869.2914,-453.5433 z"
         style="fill:#ffcc00;stroke:#000000"
         id="path6452" />
      <path
         inkscape:connector-curvature="0"
         d="M 4535.4331,3768.189 V 2256.378 h 2267.7165 v 1511.811 z"
         style="fill:#ffcc00;stroke:#000000"
         id="path6474" />
      <path
         inkscape:connector-curvature="0"
         d="m 4535.4331,6942.9921 h 760.1801 a 377.95429,377.95429 0 0 0 747.3562,0 h 760.1802 a 151.1811,151.1811 0 0 0 0,-302.3622 h -760.1802 a 377.95429,377.95429 0 0 0 -747.3562,0 h -760.1801 a 151.1811,151.1811 0 0 0 0,302.3622 z"
         style="fill:#ffcc00;stroke:#000000"
         id="path6460" />
      <path
         inkscape:connector-curvature="0"
         d="m 566.92913,6886.2992 a 188.97631,188.97631 0 0 0 8.70426,56.6929 188.97653,188.97653 0 0 0 360.54425,0 h 802.40506 v 424.4523 a 188.97653,188.97653 0 0 0 0,360.5443 188.97627,188.97627 0 0 0 56.6929,8.7042 h 188.9764 a 188.97627,188.97627 0 0 0 56.6929,-8.7042 188.97652,188.97652 0 0 0 0,-360.5443 v -424.4523 h 802.405 a 188.97653,188.97653 0 0 0 360.5443,0 188.97631,188.97631 0 0 0 8.7042,-56.6929 v -188.9764 a 188.97631,188.97631 0 0 0 -8.7042,-56.6929 188.97653,188.97653 0 0 0 -360.5443,0 h -802.405 v -424.4523 a 188.97653,188.97653 0 0 0 0,-360.5442 188.97626,188.97626 0 0 0 -56.6929,-8.7043 h -188.9764 a 188.97626,188.97626 0 0 0 -56.6929,8.7043 188.97653,188.97653 0 0 0 0,360.5442 v 424.4523 H 936.17764 a 188.97653,188.97653 0 0 0 -360.54425,0 188.97631,188.97631 0 0 0 -8.70426,56.6929 z"
         style="fill:#ffcc00;stroke:#000000"
         id="path6468" />
      <g
         id="g6260"
         inkscape:label="0" />
      <g
         id="g6302"
         inkscape:label="ads_drc_error">
        <path
           id="path6262"
           style="fill:none;stroke:#00ffff"
           d="M 7559.0551,4902.0472 H 11338.583 V 1122.5197 H 7559.0551 Z"
           inkscape:connector-curvature="0" />
        <path
           id="path6264"
           style="fill:none;stroke:#00ffff"
           d="M 0,4902.0472 H 3779.5276 V 1122.5197 H 0 Z"
           inkscape:connector-curvature="0" />
        <path
           id="path6266"
           style="fill:none;stroke:#00ffff"
           d="M 3779.5276,4902.0472 H 7559.0551 V 1122.5197 H 3779.5276 Z"
           inkscape:connector-curvature="0" />
        <path
           id="path6268"
           style="fill:none;stroke:#00ffff"
           d="M 3779.5276,16240.63 H 7559.0551 V 12461.102 H 3779.5276 Z"
           inkscape:connector-curvature="0" />
        <path
           id="path6270"
           style="fill:none;stroke:#00ffff"
           d="M 3779.5276,16240.63 H 7559.0551 V 12461.102 H 3779.5276 Z"
           inkscape:connector-curvature="0" />
        <path
           id="path6272"
           style="fill:none;stroke:#00ffff"
           d="M 7559.0551,16240.63 H 11338.583 V 12461.102 H 7559.0551 Z"
           inkscape:connector-curvature="0" />
        <path
           id="path6274"
           style="fill:none;stroke:#00ffff"
           d="M 0,23799.685 H 3779.5276 V 20020.157 H 0 Z"
           inkscape:connector-curvature="0" />
        <path
           id="path6276"
           style="fill:none;stroke:#00ffff"
           d="M 3779.5276,23799.685 H 7559.0551 V 20020.157 H 3779.5276 Z"
           inkscape:connector-curvature="0" />
        <path
           id="path6278"
           style="fill:none;stroke:#00ffff"
           d="M 7559.0551,23799.685 H 11338.583 V 20020.157 H 7559.0551 Z"
           inkscape:connector-curvature="0" />
        <path
           id="path6280"
           style="fill:none;stroke:#00ffff"
           d="M 0,12461.102 H 3779.5276 V 8681.5748 H 0 Z"
           inkscape:connector-curvature="0" />
        <path
           id="path6282"
           style="fill:none;stroke:#00ffff"
           d="M 3779.5276,20020.157 H 7559.0551 V 16240.63 H 3779.5276 Z"
           inkscape:connector-curvature="0" />
        <path
           id="path6284"
           style="fill:none;stroke:#00ffff"
           d="M 7559.0551,20020.157 H 11338.583 V 16240.63 H 7559.0551 Z"
           inkscape:connector-curvature="0" />
        <path
           id="path6286"
           style="fill:none;stroke:#00ffff"
           d="M 0,20020.157 H 3779.5276 V 16240.63 H 0 Z"
           inkscape:connector-curvature="0" />
        <path
           id="path6288"
           style="fill:none;stroke:#00ffff"
           d="M 3779.5276,12461.102 H 7559.0551 V 8681.5748 H 3779.5276 Z"
           inkscape:connector-curvature="0" />
        <path
           id="path6290"
           style="fill:none;stroke:#00ffff"
           d="M 7559.0551,12461.102 H 11338.583 V 8681.5748 H 7559.0551 Z"
           inkscape:connector-curvature="0" />
        <path
           id="path6292"
           style="fill:none;stroke:#00ffff"
           d="M 0,8681.5748 H 3779.5276 V 4902.0472 H 0 Z"
           inkscape:connector-curvature="0" />
        <path
           id="path6294"
           style="fill:none;stroke:#00ffff"
           d="M 3779.5276,8681.5748 H 7559.0551 V 4902.0472 H 3779.5276 Z"
           inkscape:connector-curvature="0" />
        <path
           id="path6296"
           style="fill:none;stroke:#00ffff"
           d="M 7559.0551,8681.5748 H 11338.583 V 4902.0472 H 7559.0551 Z"
           inkscape:connector-curvature="0" />
        <path
           id="path6298"
           style="fill:none;stroke:#00ffff"
           d="M 0,16240.63 H 3779.5276 V 12461.102 H 0 Z"
           inkscape:connector-curvature="0" />
        <path
           id="path6300"
           style="fill:none;stroke:#00ffff"
           d="M 3779.5276,8681.5748 H 7559.0551 V 4902.0472 H 3779.5276 Z"
           inkscape:connector-curvature="0" />
      </g>
      <g
         id="g6446"
         inkscape:label="EM_Metal_3">
        <path
           id="path6304"
           style="fill:#00ff00;stroke:#000000"
           d="m 4724.4094,22854.803 v -75.59 h 151.1812 v 75.59 z"
           inkscape:connector-curvature="0" />
        <path
           id="path6306"
           style="fill:#00ff00;stroke:#000000"
           d="m 5555.9055,22854.803 v -75.59 h 226.7717 v 75.59 z"
           inkscape:connector-curvature="0" />
        <path
           id="path6308"
           style="fill:#00ff00;stroke:#000000"
           d="m 4724.4094,21040.63 v -75.591 h 151.1812 v 75.591 z"
           inkscape:connector-curvature="0" />
        <path
           id="path6310"
           style="fill:#00ff00;stroke:#000000"
           d="m 10376.341,14170.571 a 944.87602,944.87602 0 0 1 0,360.59 l 35.04,17.522 a 982.68142,982.68142 0 0 0 0,-395.634 z"
           inkscape:connector-curvature="0" />
        <path
           id="path6312"
           style="fill:#00ff00;stroke:#000000"
           d="m 6462.9921,18130.394 a 37.795276,37.795276 0 1 0 -75.5905,0 37.795276,37.795276 0 1 0 75.5905,0 z"
           inkscape:connector-curvature="0" />
        <path
           id="path6314"
           style="fill:#00ff00;stroke:#000000"
           d="m 1833.0709,13651.654 h 113.3858 l -56.6929,-113.386 z"
           inkscape:connector-curvature="0" />
        <path
           id="path6316"
           style="fill:#00ff00;stroke:#000000"
           d="m 5555.9055,21040.63 v -75.591 h 226.7717 v 75.591 z"
           inkscape:connector-curvature="0" />
        <path
           id="path6318"
           style="fill:#00ff00;stroke:#000000"
           d="m 1889.7638,22854.803 113.3858,-113.386 H 1776.378 Z"
           inkscape:connector-curvature="0" />
        <path
           id="path6320"
           style="fill:#00ff00;stroke:#000000"
           d="m 2834.6457,21909.921 -113.3859,-113.386 v 226.772 z"
           inkscape:connector-curvature="0" />
        <path
           id="path6322"
           style="fill:#00ff00;stroke:#000000"
           d="m 5593.7008,3768.189 h 151.1811 a 75.590552,75.590552 0 0 0 -151.1811,0 z"
           inkscape:connector-curvature="0" />
        <path
           id="path6324"
           style="fill:#00ff00;stroke:#000000"
           d="m 944.88189,21909.921 113.38581,113.386 v -226.772 z"
           inkscape:connector-curvature="0" />
        <path
           id="path6326"
           style="fill:#00ff00;stroke:#000000"
           d="m 9268.5241,13423.344 a 944.87602,944.87602 0 0 1 360.5896,0 l 17.5219,-35.04 a 982.68142,982.68142 0 0 0 -395.6334,0 z"
           inkscape:connector-curvature="0" />
        <path
           id="path6328"
           style="fill:#00ff00;stroke:#000000"
           d="m 2169.8721,14098.484 67.1849,134.37 a 75.588898,75.588898 0 1 0 -67.1849,-134.37 z"
           inkscape:connector-curvature="0" />
        <path
           id="path6330"
           style="fill:#00ff00;stroke:#000000"
           d="m 907.08661,18319.37 v -377.953 h 37.79528 v 377.953 z"
           inkscape:connector-curvature="0" />
        <path
           id="path6332"
           style="fill:#00ff00;stroke:#000000"
           d="m 5707.0866,17374.488 a 37.795276,37.795276 0 1 0 -75.5905,0 37.795276,37.795276 0 1 0 75.5905,0 z"
           inkscape:connector-curvature="0" />
        <path
           id="path6334"
           style="fill:#00ff00;stroke:#000000"
           d="m 3061.4173,6791.811 a 37.795276,37.795276 0 1 0 -75.5905,0 37.795276,37.795276 0 1 0 75.5905,0 z"
           inkscape:connector-curvature="0" />
        <path
           id="path6336"
           style="fill:#00ff00;stroke:#000000"
           d="m 793.70079,6791.811 a 37.795276,37.795276 0 1 0 -75.59055,0 37.795276,37.795276 0 1 0 75.59055,0 z"
           inkscape:connector-curvature="0" />
        <path
           id="path6338"
           style="fill:#00ff00;stroke:#000000"
           d="M 8277.1654,3579.2126 V 2445.3543 h 37.7952 v 1133.8583 z"
           inkscape:connector-curvature="0" />
        <path
           id="path6340"
           style="fill:#00ff00;stroke:#000000"
           d="m 9524.4094,2445.3543 h -151.1811 a 75.590552,75.590552 0 0 0 151.1811,0 z"
           inkscape:connector-curvature="0" />
        <path
           id="path6342"
           style="fill:#00ff00;stroke:#000000"
           d="m 8466.1417,18281.575 v -302.362 h 37.7953 v 302.362 z"
           inkscape:connector-curvature="0" />
        <path
           id="path6344"
           style="fill:#00ff00;stroke:#000000"
           d="m 1889.7638,20965.039 -113.3858,113.386 h 226.7716 z"
           inkscape:connector-curvature="0" />
        <path
           id="path6346"
           style="fill:#00ff00;stroke:#000000"
           d="M 6803.1496,3768.189 V 2256.378 h 37.7953 v 1511.811 z"
           inkscape:connector-curvature="0" />
        <path
           id="path6348"
           style="fill:#00ff00;stroke:#000000"
           d="m 4951.1811,18130.394 a 37.795276,37.795276 0 1 0 -75.5905,0 37.795276,37.795276 0 1 0 75.5905,0 z"
           inkscape:connector-curvature="0" />
        <path
           id="path6350"
           style="fill:#00ff00;stroke:#000000"
           d="m 5707.0866,18886.299 a 37.795276,37.795276 0 1 0 -75.5905,0 37.795276,37.795276 0 1 0 75.5905,0 z"
           inkscape:connector-curvature="0" />
        <path
           id="path6352"
           style="fill:#00ff00;stroke:#000000"
           d="m 1927.5591,7547.7165 a 37.7953,37.7953 0 1 0 -75.5906,0 37.7953,37.7953 0 1 0 75.5906,0 z"
           inkscape:connector-curvature="0" />
        <path
           id="path6354"
           style="fill:#00ff00;stroke:#000000"
           d="m 1927.5591,6035.9055 a 37.7953,37.7953 0 1 0 -75.5906,0 37.7953,37.7953 0 1 0 75.5906,0 z"
           inkscape:connector-curvature="0" />
        <path
           id="path6356"
           style="fill:#00ff00;stroke:#000000"
           d="m 6803.1496,6640.6299 a 188.97638,188.97638 0 0 1 0,302.3622 151.1811,151.1811 0 0 0 0,-302.3622 z"
           inkscape:connector-curvature="0" />
        <path
           id="path6358"
           style="fill:#00ff00;stroke:#000000"
           d="m 1542.4706,14232.854 67.1848,-134.37 a 75.588898,75.588898 0 1 0 -67.1848,134.37 z"
           inkscape:connector-curvature="0" />
        <path
           id="path6360"
           style="fill:#00ff00;stroke:#000000"
           d="m 5744.8819,9815.4331 h -151.1811 a 75.590551,75.590551 0 0 0 151.1811,0 z"
           inkscape:connector-curvature="0" />
        <path
           id="path6362"
           style="fill:#00ff00;stroke:#000000"
           d="m 5593.7008,11327.244 h 151.1811 a 75.590552,75.590552 0 0 0 -151.1811,0 z"
           inkscape:connector-curvature="0" />
        <path
           id="path6364"
           style="fill:#00ff00;stroke:#000000"
           d="m 4535.4331,6942.9921 a 188.97638,188.97638 0 0 1 0,-302.3622 151.1811,151.1811 0 0 0 0,302.3622 z"
           inkscape:connector-curvature="0" />
        <path
           id="path6366"
           style="fill:#00ff00;stroke:#000000"
           d="m 2059.8425,3843.7795 h 151.1811 a 75.590551,75.590551 0 0 0 -151.1811,0 z"
           inkscape:connector-curvature="0" />
        <path
           id="path6368"
           style="fill:#00ff00;stroke:#000000"
           d="m 929.99811,2805.891 32.40945,147.6397 A 75.589594,75.589594 0 0 0 929.99811,2805.891 Z"
           inkscape:connector-curvature="0" />
        <path
           id="path6370"
           style="fill:#00ff00;stroke:#000000"
           d="m 2853.5433,3295.748 v -151.1811 a 75.590551,75.590551 0 0 0 0,151.1811 z"
           inkscape:connector-curvature="0" />
        <path
           id="path6372"
           style="fill:#00ff00;stroke:#000000"
           d="m 1927.5591,10098.898 a 37.7953,37.7953 0 1 0 -75.5906,0 37.7953,37.7953 0 1 0 75.5906,0 z"
           inkscape:connector-curvature="0" />
        <path
           id="path6374"
           style="fill:#00ff00;stroke:#000000"
           d="m 1927.5591,11043.78 a 37.7953,37.7953 0 1 0 -75.5906,0 37.7953,37.7953 0 1 0 75.5906,0 z"
           inkscape:connector-curvature="0" />
        <path
           id="path6376"
           style="fill:#00ff00;stroke:#000000"
           d="m 9222.0472,6942.9921 v -37.7953 h 453.5434 v 37.7953 z"
           inkscape:connector-curvature="0" />
        <path
           id="path6378"
           style="fill:#00ff00;stroke:#000000"
           d="m 5310.2665,6579.2126 a 472.44206,472.44206 0 0 1 718.0497,0 377.95365,377.95365 0 0 0 -718.0497,0 z"
           inkscape:connector-curvature="0" />
        <path
           id="path6380"
           style="fill:#00ff00;stroke:#000000"
           d="m 6028.3162,7004.4094 a 472.44206,472.44206 0 0 1 -718.0497,0 377.95365,377.95365 0 0 0 718.0497,0 z"
           inkscape:connector-curvature="0" />
        <path
           id="path6382"
           style="fill:#00ff00;stroke:#000000"
           d="m 9297.6378,19113.071 v -37.795 H 9600 v 37.795 z"
           inkscape:connector-curvature="0" />
        <path
           id="path6384"
           style="fill:#00ff00;stroke:#000000"
           d="m 9297.6378,17185.512 v -37.795 H 9600 v 37.795 z"
           inkscape:connector-curvature="0" />
        <path
           id="path6386"
           style="fill:#00ff00;stroke:#000000"
           d="m 10393.701,22344.567 v -869.291 h 37.795 v 869.291 z"
           inkscape:connector-curvature="0" />
        <path
           id="path6388"
           style="fill:#00ff00;stroke:#000000"
           d="m 9014.1732,20965.039 v -37.795 h 869.2914 v 37.795 z"
           inkscape:connector-curvature="0" />
        <path
           id="path6390"
           style="fill:#00ff00;stroke:#000000"
           d="M 4497.6378,3768.189 V 2256.378 h 37.7953 v 1511.811 z"
           inkscape:connector-curvature="0" />
        <path
           id="path6392"
           style="fill:#00ff00;stroke:#000000"
           d="m 5555.9055,13859.528 v -75.591 h 226.7717 v 75.591 z"
           inkscape:connector-curvature="0" />
        <path
           id="path6394"
           style="fill:#00ff00;stroke:#000000"
           d="m 6236.2205,13859.528 v -75.591 h 151.1811 v 75.591 z"
           inkscape:connector-curvature="0" />
        <path
           id="path6396"
           style="fill:#00ff00;stroke:#000000"
           d="m 9222.0472,6678.4252 v -37.7953 h 453.5434 v 37.7953 z"
           inkscape:connector-curvature="0" />
        <path
           id="path6398"
           style="fill:#00ff00;stroke:#000000"
           d="m 1700.7874,17185.512 v -37.795 h 377.9528 v 37.795 z"
           inkscape:connector-curvature="0" />
        <path
           id="path6400"
           style="fill:#00ff00;stroke:#000000"
           d="m 4535.4331,14955.591 v -37.796 h 2267.7165 v 37.796 z"
           inkscape:connector-curvature="0" />
        <path
           id="path6402"
           style="fill:#00ff00;stroke:#000000"
           d="M 4497.6378,11327.244 V 9815.4331 h 37.7953 v 1511.8109 z"
           inkscape:connector-curvature="0" />
        <path
           id="path6404"
           style="fill:#00ff00;stroke:#000000"
           d="m 925.98425,10949.291 v -755.905 h 37.79528 v 755.905 z"
           inkscape:connector-curvature="0" />
        <path
           id="path6406"
           style="fill:#00ff00;stroke:#000000"
           d="m 1754.7666,2015.1761 -142.8397,49.5193 a 75.589919,75.589919 0 0 0 142.8397,-49.5193 z"
           inkscape:connector-curvature="0" />
        <path
           id="path6408"
           style="fill:#00ff00;stroke:#000000"
           d="m 4724.4094,21947.717 v -75.591 h 151.1812 v 75.591 z"
           inkscape:connector-curvature="0" />
        <path
           id="path6410"
           style="fill:#00ff00;stroke:#000000"
           d="m 6462.9921,21040.63 v -75.591 h 151.1811 v 75.591 z"
           inkscape:connector-curvature="0" />
        <path
           id="path6412"
           style="fill:#00ff00;stroke:#000000"
           d="m 6462.9921,22854.803 v -75.59 h 151.1811 v 75.59 z"
           inkscape:connector-curvature="0" />
        <path
           id="path6414"
           style="fill:#00ff00;stroke:#000000"
           d="m 6462.9921,21947.717 v -75.591 h 151.1811 v 75.591 z"
           inkscape:connector-curvature="0" />
        <path
           id="path6416"
           style="fill:#00ff00;stroke:#000000"
           d="m 2834.6457,18319.37 v -377.953 h 37.7952 v 377.953 z"
           inkscape:connector-curvature="0" />
        <path
           id="path6418"
           style="fill:#00ff00;stroke:#000000"
           d="m 10393.701,18281.575 v -302.362 h 37.795 v 302.362 z"
           inkscape:connector-curvature="0" />
        <path
           id="path6420"
           style="fill:#00ff00;stroke:#000000"
           d="M 10582.677,3579.2126 V 2445.3543 h 37.795 v 1133.8583 z"
           inkscape:connector-curvature="0" />
        <path
           id="path6422"
           style="fill:#00ff00;stroke:#000000"
           d="m 9014.1732,22892.598 v -37.795 h 869.2914 v 37.795 z"
           inkscape:connector-curvature="0" />
        <path
           id="path6424"
           style="fill:#00ff00;stroke:#000000"
           d="m 8466.1417,22344.567 v -869.291 h 37.7953 v 869.291 z"
           inkscape:connector-curvature="0" />
        <path
           id="path6426"
           style="fill:#00ff00;stroke:#000000"
           d="m 1700.7874,19113.071 v -37.795 h 377.9528 v 37.795 z"
           inkscape:connector-curvature="0" />
        <path
           id="path6428"
           style="fill:#00ff00;stroke:#000000"
           d="M 10582.677,7358.7402 V 6224.8819 h 37.795 v 1133.8583 z"
           inkscape:connector-curvature="0" />
        <path
           id="path6430"
           style="fill:#00ff00;stroke:#000000"
           d="M 8277.1654,7358.7402 V 6224.8819 h 37.7952 v 1133.8583 z"
           inkscape:connector-curvature="0" />
        <path
           id="path6432"
           style="fill:#00ff00;stroke:#000000"
           d="m 4951.1811,13859.528 v -75.591 h 151.1811 v 75.591 z"
           inkscape:connector-curvature="0" />
        <path
           id="path6434"
           style="fill:#00ff00;stroke:#000000"
           d="M 6803.1496,11327.244 V 9815.4331 h 37.7953 v 1511.8109 z"
           inkscape:connector-curvature="0" />
        <path
           id="path6436"
           style="fill:#00ff00;stroke:#000000"
           d="m 2815.748,10949.291 v -755.905 h 37.7953 v 755.905 z"
           inkscape:connector-curvature="0" />
        <path
           id="path6438"
           style="fill:#00ff00;stroke:#000000"
           d="m 944.88189,15465.827 v -37.796 H 2834.6457 v 37.796 z"
           inkscape:connector-curvature="0" />
        <path
           id="path6440"
           style="fill:#00ff00;stroke:#000000"
           d="m 8521.2964,14531.161 a 944.87602,944.87602 0 0 1 0,-360.59 l -35.04,-17.522 a 982.68142,982.68142 0 0 0 0,395.634 z"
           inkscape:connector-curvature="0" />
        <path
           id="path6442"
           style="fill:#00ff00;stroke:#000000"
           d="m 9629.1137,15278.389 a 944.87602,944.87602 0 0 1 -360.5896,0 l -17.5219,35.04 a 982.68142,982.68142 0 0 0 395.6334,0 z"
           inkscape:connector-curvature="0" />
        <path
           id="path6444"
           style="fill:#00ff00;stroke:#000000"
           d="m 5744.8819,2256.378 h -151.1811 a 75.590551,75.590551 0 0 0 151.1811,0 z"
           inkscape:connector-curvature="0" />
      </g>
      <path
         inkscape:connector-curvature="0"
         d="m 8314.9606,7358.7402 907.0866,-453.5434 h 453.5434 l 907.0864,453.5434 V 6224.8819 l -907.0864,453.5433 h -453.5434 l -907.0866,-453.5433 z"
         style="fill:#ffcc00;stroke:#000000"
         id="path6466" />
    </g>
  </g>
</svg>
