<?xml version="1.0" encoding="UTF-8" standalone="no"?>
<!-- Created with Inkscape (http://www.inkscape.org/) -->

<svg
   xmlns:dc="http://purl.org/dc/elements/1.1/"
   xmlns:cc="http://creativecommons.org/ns#"
   xmlns:rdf="http://www.w3.org/1999/02/22-rdf-syntax-ns#"
   xmlns:svg="http://www.w3.org/2000/svg"
   xmlns="http://www.w3.org/2000/svg"
   xmlns:sodipodi="http://sodipodi.sourceforge.net/DTD/sodipodi-0.dtd"
   xmlns:inkscape="http://www.inkscape.org/namespaces/inkscape"
   width="220.00999mm"
   height="35.010002mm"
   viewBox="0 0 220.00999 35.010002"
   version="1.1"
   id="svg900"
   inkscape:version="0.92.4 (5da689c313, 2019-01-14)"
   sodipodi:docname="piezoresistive_structures.svg">
  <title
     id="title1546">piezoresistive structures</title>
  <defs
     id="defs894">
    <marker
       style="overflow:visible"
       refY="0"
       refX="0"
       orient="auto"
       id="DistanceX">
      <path
         id="path1447"
         style="stroke:#000000;stroke-width:0.5"
         d="M 3,-3 -3,3 M 0,-5 V 5"
         inkscape:connector-curvature="0" />
    </marker>
    <pattern
       y="0"
       x="0"
       width="8"
       patternUnits="userSpaceOnUse"
       id="Hatch"
       height="8">
      <path
         id="path1450"
         stroke-width="0.25"
         stroke="#000000"
         linecap="square"
         d="M8 4 l-4,4" />
      <path
         id="path1452"
         stroke-width="0.25"
         stroke="#000000"
         linecap="square"
         d="M6 2 l-4,4" />
      <path
         id="path1454"
         stroke-width="0.25"
         stroke="#000000"
         linecap="square"
         d="M4 0 l-4,4" />
    </pattern>
    <symbol
       id="*Model_Space" />
    <symbol
       id="*Paper_Space" />
    <symbol
       id="*Paper_Space0" />
  </defs>
  <sodipodi:namedview
     id="base"
     pagecolor="#ffffff"
     bordercolor="#666666"
     borderopacity="1.0"
     inkscape:pageopacity="0.0"
     inkscape:pageshadow="2"
     inkscape:zoom="1.4"
     inkscape:cx="438.38424"
     inkscape:cy="81.020478"
     inkscape:document-units="mm"
     inkscape:current-layer="layer1"
     showgrid="false"
     fit-margin-top="0"
     fit-margin-left="0"
     fit-margin-right="0"
     fit-margin-bottom="0"
     inkscape:window-width="1920"
     inkscape:window-height="1017"
     inkscape:window-x="-8"
     inkscape:window-y="-8"
     inkscape:window-maximized="1" />
  <metadata
     id="metadata897">
    <rdf:RDF>
      <cc:Work
         rdf:about="">
        <dc:format>image/svg+xml</dc:format>
        <dc:type
           rdf:resource="http://purl.org/dc/dcmitype/StillImage" />
        <dc:title>piezoresistive structures</dc:title>
        <cc:license
           rdf:resource="http://creativecommons.org/licenses/by-nc-sa/4.0/" />
        <dc:publisher>
          <cc:Agent>
            <dc:title>vladimir.kolchuzhin@ieee.org</dc:title>
          </cc:Agent>
        </dc:publisher>
        <dc:description>piezoresistive structures, set1</dc:description>
        <dc:source>algrid@yandex.ru</dc:source>
      </cc:Work>
      <cc:License
         rdf:about="http://creativecommons.org/licenses/by-nc-sa/4.0/">
        <cc:permits
           rdf:resource="http://creativecommons.org/ns#Reproduction" />
        <cc:permits
           rdf:resource="http://creativecommons.org/ns#Distribution" />
        <cc:requires
           rdf:resource="http://creativecommons.org/ns#Notice" />
        <cc:requires
           rdf:resource="http://creativecommons.org/ns#Attribution" />
        <cc:prohibits
           rdf:resource="http://creativecommons.org/ns#CommercialUse" />
        <cc:permits
           rdf:resource="http://creativecommons.org/ns#DerivativeWorks" />
        <cc:requires
           rdf:resource="http://creativecommons.org/ns#ShareAlike" />
      </cc:License>
    </rdf:RDF>
  </metadata>
  <g
     inkscape:label="Ebene 1"
     inkscape:groupmode="layer"
     id="layer1"
     transform="translate(-126.6081,-278.73905)">
    <g
       style="fill:#00ff00"
       inkscape:label="0"
       id="g1462"
       transform="matrix(0.26458333,0,0,0.26458333,126.6131,16.744049)" />
    <g
       style="fill:#ffeeaa;stroke-width:0.03779528;stroke-miterlimit:4;stroke-dasharray:none"
       inkscape:label="EM_Metal_2"
       id="g1466"
       transform="matrix(0.26458333,0,0,0.26458333,126.6131,16.744049)">
      <path
         inkscape:connector-curvature="0"
         d="M 0,1122.5197 V 990.23622 h 831.49606 v 132.28348 z"
         style="fill:#ffeeaa;stroke:#000000;stroke-width:0.03779528;stroke-miterlimit:4;stroke-dasharray:none"
         id="path1464" />
    </g>
    <path
       id="path1468"
       style="fill:#00ff00;stroke:#000000;stroke-width:0.02;stroke-miterlimit:4;stroke-dasharray:none"
       d="m 177.1131,298.64404 v -0.29998 h -0.8 v 0.79999 h 0.8 v -0.30001 h 0.8 v 0.2 h -0.35 v 0.80002 h 0.8 v -0.80002 h -0.35 v -0.2 h 2.2 v 0.2 h -0.35 v 0.80002 h 0.8 v -0.80002 h -0.35 v -0.2 h 0.8 v 0.30001 h 0.8 v -0.79999 h -0.8 v 0.29998 z"
       inkscape:connector-curvature="0" />
    <path
       id="path1470"
       style="fill:#00ff00;stroke:#000000;stroke-width:0.02;stroke-miterlimit:4;stroke-dasharray:none"
       d="m 177.1131,293.64405 v -0.30001 h -0.8 v 0.79999 h 0.8 v -0.29998 h 4 v 0.29998 h 0.8 v -0.79999 h -0.8 v 0.30001 h -0.8 v -0.2 h 0.35 v -0.79999 h -0.8 v 0.79999 h 0.35 v 0.2 h -2.2 v -0.2 h 0.35 v -0.79999 h -0.8 v 0.79999 h 0.35 v 0.2 z"
       inkscape:connector-curvature="0" />
    <path
       id="path1472"
       style="fill:#00ff00;stroke:#000000;stroke-width:0.02;stroke-miterlimit:4;stroke-dasharray:none"
       d="m 186.2131,294.24405 h 0.3 v 3.99999 h -0.3 v 0.8 h 0.8 v -0.8 h -0.3 v -0.79999 h 0.2 v 0.34999 h 0.8 v -0.79999 h -0.8 v 0.34999 h -0.2 v -2.19999 h 0.2 v 0.34999 h 0.8 v -0.79999 h -0.8 v 0.34999 h -0.2 v -0.79999 h 0.3 v -0.8 h -0.8 z"
       inkscape:connector-curvature="0" />
    <path
       id="path1474"
       style="fill:#00ff00;stroke:#000000;stroke-width:0.02;stroke-miterlimit:4;stroke-dasharray:none"
       d="m 210.4131,303.29404 v -0.05 h -0.8 v 1.00002 h 0.8 v -0.05 h 0.75 v 0.74998 h -0.05 v 0.80002 h 1 v -0.80002 h -0.05 v -0.74998 h 0.75 v 0.05 h 0.8 v -1.00002 h -0.8 v 0.05 h -0.75 v -0.74999 h 0.05 v -0.79999 h -1 v 0.79999 h 0.05 v 0.74999 z"
       inkscape:connector-curvature="0" />
    <path
       id="path1476"
       style="fill:#00ff00;stroke:#000000;stroke-width:0.02;stroke-miterlimit:4;stroke-dasharray:none"
       d="m 210.4131,288.29404 v -0.05 h -0.8 v 1.00002 h 0.8 v -0.05 h 1.1 v 0.2 h -0.4 v 0.79999 h 1 v -0.79999 h -0.4 v -0.2 h 1.1 v 0.05 h 0.8 v -1.00002 h -0.8 v 0.05 h -1.1 v -0.2 h 0.4 v -0.79999 h -1 v 0.79999 h 0.4 v 0.2 z"
       inkscape:connector-curvature="0" />
    <path
       id="path1478"
       style="fill:#00ff00;stroke:#000000;stroke-width:0.02;stroke-miterlimit:4;stroke-dasharray:none"
       d="m 246.6131,311.24405 v -30 h 30 v 30 z"
       inkscape:connector-curvature="0" />
    <path
       id="path1480"
       style="fill:#00ff00;stroke:#000000;stroke-width:0.02;stroke-miterlimit:4;stroke-dasharray:none"
       d="m 286.3131,295.04404 v -0.34999 h -0.8 v 0.79999 h 0.8 v -0.34999 h 0.2 v 2.19999 h -0.2 v -0.34999 h -0.8 v 0.79999 h 0.8 v -0.34999 h 0.2 v 0.79999 h -0.3 v 0.8 h 0.8 v -0.8 h -0.3 v -3.99999 h 0.3 v -0.8 h -0.8 v 0.8 h 0.3 v 0.79999 z"
       inkscape:connector-curvature="0" />
    <path
       id="path1482"
       style="fill:#00ff00;stroke:#000000;stroke-width:0.02;stroke-miterlimit:4;stroke-dasharray:none"
       d="m 299.84533,295.1834 0.56569,0.56568 0.0354,-0.0353 0.53032,0.53033 -0.53032,0.5303 -0.0354,-0.0353 -0.56569,0.56568 0.70711,0.70713 0.56569,-0.56571 -0.0353,-0.0353 0.53032,-0.53033 0.53033,0.53033 -0.0354,0.0353 0.56569,0.56571 0.70711,-0.70713 -0.56569,-0.56568 -0.0353,0.0353 -0.53033,-0.5303 0.53033,-0.53033 0.0353,0.0353 0.56569,-0.56568 -0.70711,-0.70713 -0.56569,0.56571 0.0354,0.0353 -0.53033,0.53034 -0.53032,-0.53034 0.0353,-0.0353 -0.56569,-0.56571 z"
       inkscape:connector-curvature="0" />
    <path
       id="path1484"
       style="fill:#00ff00;stroke:#000000;stroke-width:0.02;stroke-miterlimit:4;stroke-dasharray:none"
       d="m 171.3131,295.04404 v -0.34999 h -0.8 v 0.79999 h 0.8 v -0.34999 h 0.2 v 2.19999 h -0.2 v -0.34999 h -0.8 v 0.79999 h 0.8 v -0.34999 h 0.2 v 0.79999 h -0.3 v 0.8 h 0.8 v -0.8 h -0.3 v -3.99999 h 0.3 v -0.8 h -0.8 v 0.8 h 0.3 v 0.79999 z"
       inkscape:connector-curvature="0" />
  </g>
</svg>
