<?xml version="1.0" encoding="UTF-8" standalone="no"?>
<!-- Created with Inkscape (http://www.inkscape.org/) -->

<svg
   xmlns:dc="http://purl.org/dc/elements/1.1/"
   xmlns:cc="http://creativecommons.org/ns#"
   xmlns:rdf="http://www.w3.org/1999/02/22-rdf-syntax-ns#"
   xmlns:svg="http://www.w3.org/2000/svg"
   xmlns="http://www.w3.org/2000/svg"
   xmlns:sodipodi="http://sodipodi.sourceforge.net/DTD/sodipodi-0.dtd"
   xmlns:inkscape="http://www.inkscape.org/namespaces/inkscape"
   width="368.30649mm"
   height="316.91458mm"
   viewBox="0 0 368.30649 316.91458"
   version="1.1"
   id="svg4581"
   inkscape:version="0.92.4 (5da689c313, 2019-01-14)"
   sodipodi:docname="Schrittschaltwerke.svg">
  <title
     id="title5217">Schrittschaltwerke</title>
  <defs
     id="defs4575">
    <marker
       style="overflow:visible"
       refY="0"
       refX="0"
       orient="auto"
       id="DistanceX">
      <path
         id="path5128"
         style="stroke:#000000;stroke-width:0.5"
         d="M 3,-3 -3,3 M 0,-5 V 5"
         inkscape:connector-curvature="0" />
    </marker>
    <pattern
       y="0"
       x="0"
       width="8"
       patternUnits="userSpaceOnUse"
       id="Hatch"
       height="8">
      <path
         id="path5131"
         stroke-width="0.25"
         stroke="#000000"
         linecap="square"
         d="M8 4 l-4,4" />
      <path
         id="path5133"
         stroke-width="0.25"
         stroke="#000000"
         linecap="square"
         d="M6 2 l-4,4" />
      <path
         id="path5135"
         stroke-width="0.25"
         stroke="#000000"
         linecap="square"
         d="M4 0 l-4,4" />
    </pattern>
    <symbol
       id="*Model_Space" />
    <symbol
       id="*Paper_Space" />
    <symbol
       id="*Paper_Space0" />
    <marker
       style="overflow:visible"
       refY="0"
       refX="0"
       orient="auto"
       id="DistanceX-5">
      <path
         id="path5221"
         style="stroke:#000000;stroke-width:0.5"
         d="M 3,-3 -3,3 M 0,-5 V 5"
         inkscape:connector-curvature="0" />
    </marker>
    <pattern
       y="0"
       x="0"
       width="8"
       patternUnits="userSpaceOnUse"
       id="Hatch-9"
       height="8">
      <path
         id="path5224"
         stroke-width="0.25"
         stroke="#000000"
         linecap="square"
         d="M8 4 l-4,4" />
      <path
         id="path5226"
         stroke-width="0.25"
         stroke="#000000"
         linecap="square"
         d="M6 2 l-4,4" />
      <path
         id="path5228"
         stroke-width="0.25"
         stroke="#000000"
         linecap="square"
         d="M4 0 l-4,4" />
    </pattern>
    <symbol
       id="*Model_Space-8" />
    <symbol
       id="*Paper_Space-7" />
    <symbol
       id="*Paper_Space0-9" />
    <marker
       style="overflow:visible"
       refY="0"
       refX="0"
       orient="auto"
       id="DistanceX-8">
      <path
         id="path5318"
         style="stroke:#000000;stroke-width:0.5"
         d="M 3,-3 -3,3 M 0,-5 V 5"
         inkscape:connector-curvature="0" />
    </marker>
    <pattern
       y="0"
       x="0"
       width="8"
       patternUnits="userSpaceOnUse"
       id="Hatch-4"
       height="8">
      <path
         id="path5321"
         stroke-width="0.25"
         stroke="#000000"
         linecap="square"
         d="M8 4 l-4,4" />
      <path
         id="path5323"
         stroke-width="0.25"
         stroke="#000000"
         linecap="square"
         d="M6 2 l-4,4" />
      <path
         id="path5325"
         stroke-width="0.25"
         stroke="#000000"
         linecap="square"
         d="M4 0 l-4,4" />
    </pattern>
    <symbol
       id="*Model_Space-9" />
    <symbol
       id="*Paper_Space-0" />
    <symbol
       id="*Paper_Space0-90" />
  </defs>
  <sodipodi:namedview
     id="base"
     pagecolor="#ffffff"
     bordercolor="#666666"
     borderopacity="1.0"
     inkscape:pageopacity="0.0"
     inkscape:pageshadow="2"
     inkscape:zoom="0.7"
     inkscape:cx="84.14957"
     inkscape:cy="720.78401"
     inkscape:document-units="mm"
     inkscape:current-layer="g5452"
     showgrid="false"
     fit-margin-top="0"
     fit-margin-left="0"
     fit-margin-right="0"
     fit-margin-bottom="0"
     inkscape:window-width="2560"
     inkscape:window-height="1377"
     inkscape:window-x="1192"
     inkscape:window-y="-8"
     inkscape:window-maximized="1" />
  <metadata
     id="metadata4578">
    <rdf:RDF>
      <cc:Work
         rdf:about="">
        <dc:format>image/svg+xml</dc:format>
        <dc:type
           rdf:resource="http://purl.org/dc/dcmitype/StillImage" />
        <dc:title>Schrittschaltwerke</dc:title>
        <cc:license
           rdf:resource="http://creativecommons.org/licenses/by-nc-sa/4.0/" />
        <dc:description>Schrittschaltwerke</dc:description>
        <dc:subject>
          <rdf:Bag>
            <rdf:li>Schrittschaltwerke</rdf:li>
          </rdf:Bag>
        </dc:subject>
        <dc:rights>
          <cc:Agent>
            <dc:title>TU Chemnitz</dc:title>
          </cc:Agent>
        </dc:rights>
        <dc:source>https://nbn-resolving.org/urn:nbn:de:bsz:ch1-200800952</dc:source>
        <dc:publisher>
          <cc:Agent>
            <dc:title>vladimir.kolchuzhin@ieee.org</dc:title>
          </cc:Agent>
        </dc:publisher>
      </cc:Work>
      <cc:License
         rdf:about="http://creativecommons.org/licenses/by-nc-sa/4.0/">
        <cc:permits
           rdf:resource="http://creativecommons.org/ns#Reproduction" />
        <cc:permits
           rdf:resource="http://creativecommons.org/ns#Distribution" />
        <cc:requires
           rdf:resource="http://creativecommons.org/ns#Notice" />
        <cc:requires
           rdf:resource="http://creativecommons.org/ns#Attribution" />
        <cc:prohibits
           rdf:resource="http://creativecommons.org/ns#CommercialUse" />
        <cc:permits
           rdf:resource="http://creativecommons.org/ns#DerivativeWorks" />
        <cc:requires
           rdf:resource="http://creativecommons.org/ns#ShareAlike" />
      </cc:License>
    </rdf:RDF>
  </metadata>
  <g
     inkscape:label="Schrittschaltwerke"
     inkscape:groupmode="layer"
     id="layer1"
     transform="translate(-183.33314,-109.60905)"
     style="display:inline">
    <g
       id="g5452"
       inkscape:label="Sperrklinke">
      <path
         inkscape:connector-curvature="0"
         d="m 318.91193,419.39132 v -0.99999 h 19.8 v -0.90001 h -19.8 v -4.89997 h 19.8 v -0.90001 h -19.8 v -4.90001 h 19.8 v -0.9 h -19.8 v -4.90001 h 19.8 v -0.89998 h -19.8 v -4.9 h 19.8 v -0.90001 h -19.8 v -4.9 h 19.8 v -0.90001 h -19.8 v -4.89997 h 19.8 v -0.90001 h -19.8 v -4.90001 h 19.8 v -0.9 h -19.8 v -4.90001 h 19.8 v -0.89998 h -19.8 v -4.9 h 19.8 v -0.90001 h -19.8 v -4.9 h 19.8 v -0.90001 h -19.8 v -4.89997 h 19.8 v -0.90001 h -19.8 v -4.9 h 19.8 v -0.90001 h -19.8 v -4.90001 h 19.8 v -0.89998 h -19.8 v -4.9 h 19.8 v -0.90001 h -19.8 v -4.9 h 19.8 v -0.90001 h -19.8 v -4.89997 h 19.8 v -0.90001 h -19.8 v -4.9 h 19.8 v -0.90001 h -19.8 v -4.90001 h 19.8 v -0.89998 h -19.8 v -4.9 h 19.8 v -0.90001 h -19.8 v -5.1 l -0.3,-0.29998 v -2.40001 l 0.3,-0.30001 h 28.7 l 0.3,0.30001 v 2.40001 l -0.3,0.29998 h -2.7 v 10.00001 h 5.65 v -10.00001 h -2.05 l -0.3,-0.29998 v -2.40001 l 0.3,-0.30001 v -0.89998 h -2.6 v -27.60012 h 0.5 v -0.1 l 0.7909,-0.19999 h 0.1091 v -0.4 h -0.1091 l -0.7909,-0.20003 v -0.1 h -0.5 v 10e-5 h -0.9 v -10e-5 h -0.902 v 0.99999 h 0.902 v 27.60012 h -26.1 v -2.00372 l 25.198,-25.5964 v -0.99999 h -0.7015 v 0.003 l -25.3965,25.79802 -0.003,0.003 0.003,0.003 v 3.6934 l 0.3,0.30001 v 2.40001 l -0.3,0.29998 h -0.9 v 1.40002 h 0.9 v 2.3 h -0.9 v 0.89998 h 0.9 v 1.7 h -0.9 v 0.9 h 0.9 v 1.7 h -0.9 v 0.90001 h 0.9 v 2.29942 h -0.9 v 0.9 h 0.9 v 1.7 h -0.9 v 0.89998 h 0.9 v 2.30003 h -0.9 v 0.89998 h 0.9 v 1.7 h -0.9 v 0.9 h 0.9 v 2.3 h -0.9 v 0.90001 h 0.9 v 2.29999 h -0.9 v 0.90001 h 0.9 v 1.7 h -0.9 v 0.90001 h 0.9 v 2.29999 h -0.9 v 0.89998 h 0.9 v 1.7 h -0.9 v 0.90001 h 0.9 v 2.3 h -0.9 v 0.9 h 0.9 v 1.70001 h -0.9 v 0.9 h 0.9 v 2.3 h -0.9 v 0.90001 h 0.9 v 1.7 h -0.9 v 0.89998 h 0.9 v 2.29999 h -0.9 v 0.90001 h 0.9 v 1.7 h -0.9 v 0.90001 h 0.9 v 2.29999 h -0.9 v 0.90001 h 0.9 v 1.7 h -0.9 v 0.90001 h 0.9 v 2.29999 h -0.9 v 0.89998 h 0.9 v 1.7 h -0.9 v 0.90001 h 0.9 v 2.3 h -0.9 v 0.9 h 0.9 v 1.70001 h -0.9 v 0.9 h 0.9 v 2.3 h -0.9 v 0.90001 h 0.9 v 1.7 h -0.9 v 0.89998 h 0.9 v 2.29999 h -0.9 v 0.90001 h 0.9 v 1.7 h -0.9 v 0.90001 h 0.9 v 2.29999 h -0.9 v 0.90001 h 0.9 v 1.7 h -0.9 v 0.90001 h 0.9 v 2.29999 h -0.9 v 0.89998 h 0.9 v 1.7 h -0.9 v 0.90001 h 0.9 v 2.3 h -0.9 v 0.9 h 0.9 v 1.70001 h -0.9 v 0.9 h 0.9 v 2.3 h -0.9 v 0.9 h 0.9 v 1.70001 h -0.9 v 0.89998 h 0.9 v 2.29999 h -0.9 v 0.90001 h 0.9 v 1.7 h -0.9 v 0.90001 h 0.9 v 2.29999 h -0.9 v 0.90001 h 0.9 v 2.3 h -0.9 v -2.3 -0.90001 -2.29999 -0.90001 -1.7 -0.90001 -2.29999 -0.89998 -1.70001 -0.9 -2.3 -0.9 -1.70001 -0.9 -2.3 -0.90001 -1.7 -0.89998 -2.29999 -0.90001 -1.7 -0.90001 -2.29999 -0.90001 -1.7 -0.90001 -2.29999 -0.89998 -1.7 -0.90001 -2.3 -0.9 -1.70001 -0.9 -2.3 -0.90001 -1.7 -0.89998 -2.29999 -0.90001 -1.7 -0.90001 -2.29999 -0.90001 -1.7 -0.90001 -2.29999 -0.89998 -1.7 -0.90001 -2.3 -0.9 -1.70001 -0.9 -2.3 -0.90001 -1.7 -0.89998 -2.29999 -0.90001 -1.7 -0.90001 -2.29999 -0.90001 -2.3 -0.9 -1.7 -0.89998 -2.30003 -0.89998 -1.7 -0.9 -2.3 -0.90001 -1.7 -0.9 -1.70001 -0.89998 -2.29999 -1.40002 h -0.9 v 5.1 h -19.8 v 0.90001 h 19.8 v 4.9 h -19.8 v 0.89998 h 19.8 v 4.90001 h -19.8 v 0.90001 h 19.8 v 4.9 h -19.8 v 0.90001 h 19.8 v 4.89997 h -19.8 v 0.90001 h 19.8 v 4.9 h -19.8 v 0.90001 h 19.8 v 4.9 h -19.8 v 0.89998 h 19.8 v 4.90001 h -19.8 v 0.90001 h 19.8 v 4.9 h -19.8 v 0.90001 h 19.8 v 4.89997 h -19.8 v 0.90001 h 19.8 v 4.9 h -19.8 v 0.90001 h 19.8 v 4.9 h -19.8 v 0.89998 h 19.8 v 4.90001 h -19.8 v 0.9 h 19.8 v 4.90001 h -19.8 v 0.90001 h 19.8 v 4.89997 h -19.8 v 0.90001 h 19.8 v 4.9 h -19.8 v 0.90001 h 19.8 v 4.9 h -19.8 v 0.89998 h 19.8 v 4.90001 h -19.8 v 0.9 h 19.8 v 4.90001 h -19.8 v 0.90001 h 19.8 v 4.89997 h -19.8 v 0.90001 h 19.8 v 0.99999 l -0.3,0.30001 h -2.2 l -0.3,-0.30001 h -22 l -0.3,0.30001 h -2.2 l -0.3,-0.30001 v -3.49999 h -10 v 10.49999 h 10 v -6.09999 l 0.3,-0.29999 h 2.2 l 0.3,0.29999 h 22 l 0.3,-0.29999 h 2.2 l 1.2,1.2 v 1.79998 h -0.95 v 0.90001 h 2.8 v -0.90001 h -0.95 v -1.79998 l 1.2,-1.2 h 2.2 l 0.3,0.29999 h 22 l 0.3,-0.29999 h 2.2 l 0.3,0.29999 v 6.09999 h 10 v -10.49999 h -10 v 3.49999 l -0.3,0.30001 h -2.2 l -0.3,-0.30001 h -22 l -0.3,0.30001 h -2.2 z"
         style="fill:#ff5555;stroke:#000000;stroke-width:0;stroke-miterlimit:4;stroke-dasharray:none"
         id="path5335"
         inkscape:label="Rotor" />
      <path
         inkscape:connector-curvature="0"
         d="m 291.01193,418.39133 h 3.6 v -1.7 h 19.8 v -0.90001 h -19.8 v -4.89998 h 19.8 v -0.9 h -19.8 v -4.90001 h 19.8 v -0.9 h -19.8 v -4.90001 h 19.8 v -0.89998 h -19.8 v -4.9 h 19.8 v -0.90001 h -19.8 v -4.9 h 19.8 v -0.90001 h -19.8 v -4.89998 h 19.8 v -0.9 h -19.8 v -4.90001 h 19.8 v -0.9 h -19.8 v -4.90001 h 19.8 v -0.89998 h -19.8 v -4.9 h 19.8 v -0.90001 h -19.8 v -4.9 h 19.8 v -0.90001 h -19.8 v -4.89998 h 19.8 v -0.9 h -19.8 v -4.90001 h 19.8 v -0.9 h -19.8 v -4.90001 h 19.8 v -0.89998 h -19.8 v -4.9 h 19.8 v -0.90001 h -19.8 v -4.9 h 19.8 v -0.89998 h -19.8 v -4.90001 h 19.8 v -0.9 h -19.8 v -4.90001 h 19.8 v -0.9 h -19.8 v -4.90001 h 19.8 v -0.89998 h -19.8 v -4.9 h 19.8 v -0.90001 h -23.4 z"
         style="fill:#0000ff;fill-opacity:1;stroke:#000000;stroke-width:0;stroke-miterlimit:4;stroke-dasharray:none"
         id="path5345"
         inkscape:label="Elektrode 1" />
      <path
         inkscape:connector-curvature="0"
         d="m 315.76193,424.09133 v -1.79999 h 0.9 v -0.90001 h -24.75 v 4.99999 h 51.3 v -4.99999 h -24.75 v 0.90001 h 0.9 v 1.79999 h -1.35 v 0.9 h -0.9 v -0.9 z"
         style="fill:#c8c4b7;stroke:#000000;stroke-width:0;stroke-miterlimit:4;stroke-dasharray:none"
         id="path5347"
         inkscape:label="Stopfen " />
      <path
         inkscape:connector-curvature="0"
         d="m 320.71193,416.69133 h 19.8 v 1.7 h 3.6 v -112.8 h -23.4 v 0.90001 h 19.8 v 4.9 h -19.8 v 0.89998 h 19.8 v 4.90001 h -19.8 v 0.9 h 19.8 v 4.90001 h -19.8 v 0.9 h 19.8 v 4.90001 h -19.8 v 0.89998 h 19.8 v 4.9 h -19.8 v 0.90001 h 19.8 v 4.9 h -19.8 v 0.89998 h 19.8 v 4.90001 h -19.8 v 0.9 h 19.8 v 4.90001 h -19.8 v 0.9 h 19.8 v 4.89998 h -19.8 v 0.90001 h 19.8 v 4.9 h -19.8 v 0.90001 h 19.8 v 4.9 h -19.8 v 0.89998 h 19.8 v 4.90001 h -19.8 v 0.9 h 19.8 v 4.90001 h -19.8 v 0.9 h 19.8 v 4.89998 h -19.8 v 0.90001 h 19.8 v 4.9 h -19.8 v 0.90001 h 19.8 v 4.9 h -19.8 v 0.89998 h 19.8 v 4.90001 h -19.8 v 0.9 h 19.8 v 4.90001 h -19.8 v 0.9 h 19.8 v 4.89998 h -19.8 z"
         style="fill:#0000ff;stroke:#000000;stroke-width:0;stroke-miterlimit:4;stroke-dasharray:none"
         id="path5353"
         inkscape:label="Elektrode 2" />
    </g>
    <path
       inkscape:label="Zahnsegment"
       id="path5357"
       style="display:inline;fill:#ffcc00;stroke:#000000;stroke-width:0;stroke-miterlimit:4;stroke-dasharray:none"
       d="m 347.61243,267.89014 0.3997,0.10099 -2e-4,0.40021 -0.4,0.1 5e-4,0.401 0.4003,0.099 0.002,0.39999 -0.3994,0.10232 0.003,0.40079 0.4008,0.0969 0.004,0.4 -0.399,0.10429 0.005,0.40101 0.4013,0.0946 0.006,0.4 -0.3985,0.10639 0.007,0.401 0.4018,0.0926 0.008,0.4 -0.3977,0.1084 0.009,0.40082 0.4023,0.0905 0.01,0.39999 -0.3972,0.1107 0.011,0.4005 0.4028,0.0885 0.0121,0.39999 -0.3967,0.11251 0.0134,0.40079 0.4033,0.0864 0.0141,0.39971 -0.3962,0.11488 0.0154,0.4005 0.4039,0.0841 0.0161,0.3997 -0.3954,0.1169 0.0175,0.4005 0.4041,0.0821 0.006,0.13901 v 0.26429 l -0.3828,0.11539 0.0195,0.40021 0.4046,0.08 0.0205,0.39949 -0.3944,0.12099 0.0218,0.40032 0.4049,0.0779 0.0225,0.3995 -0.3935,0.123 0.0238,0.4 0.4051,0.0759 0.0249,0.39917 -0.3931,0.1252 0.0259,0.39992 0.4057,0.0736 0.0269,0.39918 -0.3923,0.12721 0.0279,0.39999 0.4062,0.0713 0.0287,0.3992 -0.3915,0.1292 0.03,0.39978 0.4064,0.0692 0.031,0.39889 -0.3908,0.13131 0.0321,0.39949 0.4066,0.0672 0.0331,0.3987 -0.39,0.13329 0.0341,0.3995 0.4072,0.0651 0.0351,0.39839 -0.3895,0.13541 0.0362,0.3992 0.4077,0.0631 0.0371,0.39819 -0.3887,0.1374 0.0382,0.39899 0.408,0.0607 0.0392,0.3982 -0.3879,0.13951 0.0402,0.3987 0.4082,0.0587 0.0416,0.39801 -0.3875,0.1415 0.0426,0.39841 0.4084,0.0567 0.0434,0.39769 -0.3864,0.14359 0.0446,0.3982 0.4087,0.0546 0.0456,0.39741 -0.3859,0.14538 0.0467,0.3982 0.409,0.0523 0.0477,0.39709 -0.3852,0.1475 0.049,0.39791 0.4092,0.0503 0.0498,0.39679 h -0.003 1e-4 l -0.3819,0.14841 0.0508,0.39769 0.4093,0.048 0.1827,1.388 189.3614,-24.92999 0.1241,-0.12412 v -0.36711 l 0.35,-0.34999 h 1.5954 l 0.3,0.30001 v 4.54999 h 9.99999 V 263.3901 h -9.99999 v 4.55002 l -0.3,0.30001 h -1.5954 l -0.35,-0.35002 v -0.3673 l -0.1241,-0.12408 -14.62591,-1.92556 v 2.46695 h 2.30001 v 0.9 h -2.30001 v -0.9 -2.46695 l -2.6,-0.34229 v 2.80924 h 1.70001 v 0.9 h -1.70001 v -0.9 -2.80924 L 351.00063,242.63111 v 2.01724 l 167.9113,22.10599 v 0.28699 h -0.2 v 0.90001 h 2.3 v 0.9 h -2.3 v -0.9 -0.90001 h -2.6 v 0.90001 h 1.7 v 0.9 h -1.7 v -0.9 -0.90001 h -3.2 v 0.90001 h 2.3 v 0.9 h -2.3 v -0.9 -0.90001 h -2.6 v 0.90001 h 1.7 v 0.9 h -1.7 v -0.9 -0.90001 h -3.2 v 0.90001 h 2.3 v 0.9 h -2.3 v -0.9 -0.90001 h -2.6 v 0.90001 h 1.7 v 0.9 h -1.7 v -0.9 -0.90001 h -3.2 v 0.90001 h 2.3 v 0.9 h -2.3 v -0.9 -0.90001 h -2.6 v 0.90001 h 1.7 v 0.9 h -1.7 v -0.9 -0.90001 h -3.2 v 0.90001 h 2.3 v 0.9 h -2.3 v -0.9 -0.90001 h -2.6 v 0.90001 h 1.7 v 0.9 h -1.7 v -0.9 -0.90001 h -3.2 v 0.90001 h 2.3 v 0.9 h -2.3 v -0.9 -0.90001 h -2.6 v 0.90001 h 1.7 v 0.9 h -1.7 v -0.9 -0.90001 h -3.2 v 0.90001 h 2.3 v 0.9 h -2.3 v -0.9 -0.90001 h -3.2 v 0.90001 h 2.3 v 0.9 h -2.3 v -0.9 -0.90001 h -2.6 v 0.90001 h 1.7 v 0.9 h -1.7 v -0.9 -0.90001 h -3.2 v 0.90001 h 2.3 v 0.9 h -2.3 v -0.9 -0.90001 h -2.6 v 0.90001 h 1.7 v 0.9 h -1.7 v -0.9 -0.90001 h -3.2 v 0.90001 h 2.3 v 0.9 h -2.3 v -0.9 -0.90001 h -2.6 v 0.90001 h 1.7 v 0.9 h -1.7 v -0.9 -0.90001 h -3.5 v 0.90001 h 2.6 v 0.9 h -2.6 v -0.9 -0.90001 h -3.2 v 0.90001 h 2.3 v 0.9 h -2.3 v -0.9 -0.90001 h -2.6 v 0.90001 h 1.7 v 0.9 h -1.7 v -0.9 -0.90001 h -3.2 v 0.90001 h 2.3 v 0.9 h -2.3 v -0.9 -0.90001 h -2.6 v 0.90001 h 1.7 v 0.9 h -1.7 v -0.9 -0.90001 h -3.2 v 0.90001 h 2.3 v 0.9 h -2.3 v -0.9 -0.90001 h -2.6 v 0.90001 h 1.7 v 0.9 h -1.7 v -0.9 -0.90001 h -3.2 v 0.90001 h 2.3 v 0.9 h -2.3 v -0.9 -0.90001 h -2.6 v 0.90001 h 1.7 v 0.9 h -1.7 v -0.9 -0.90001 h -3.2 v 0.90001 h 2.3 v 0.9 h -2.3 v -0.9 -0.90001 h -2.6 v 0.90001 h 1.7 v 0.9 h -1.7 v -0.9 -0.90001 h -3.2 v 0.90001 h 2.3 v 0.9 h -2.3 v -0.9 -0.90001 h -2.6 v 0.90001 h 1.7 v 0.9 h -1.7 v -0.9 -0.90001 h -3.2 v 0.90001 h 2.3 v 0.9 h -2.3 v -0.9 -0.90001 h -2.6 v 0.90001 h 1.7 v 0.9 h -1.7 v -0.9 -0.90001 h -3.2 v 0.90001 h 2.3 v 0.9 h -2.3 v -0.9 -0.90001 h -2.6 v 0.90001 h 1.7 v 0.9 h -1.7 v -0.9 -0.90001 h -3.2 v 0.90001 h 2.3 v 0.9 h -2.3 v -0.9 -0.90001 h -2.6 v 0.90001 h 1.7 v 0.9 h -1.7 v -0.9 -0.90001 h -3.2 v 0.90001 h 2.3 v 0.9 h -2.3 v -0.9 -0.90001 h -2.6 v 0.90001 h 1.7 v 0.9 h -1.7 v -0.9 -0.90001 h -3.2 v 0.90001 h 2.3 v 0.9 h -2.3 v -0.9 -0.90001 h -2.6 v 0.90001 h 1.7 v 0.9 h -1.7 v -0.9 -0.90001 h -3.2 v 0.90001 h 2.3 v 0.9 h -2.3 v -0.9 -0.90001 h -2.6 v 0.90001 h 1.7 v 0.9 h -1.7 v -0.9 -0.90001 h -3.2 v 0.90001 h 2.3 v 0.9 h -2.3 v -0.9 -0.90001 h -2.6 v 0.90001 h 1.7 v 0.9 h -1.7 v 0.89998 h 131.3 v 0.28681 l -167.9113,22.10602 -0.41581,-3.56365 -0.34826,-3.57087 -0.2806,-3.57679 -0.21283,-3.58151 h 37.8688 v -8.10001 -0.89998 -0.9 -0.90001 -8.09998 h -3.2 v 0.89998 h 2.3 v 0.90001 h -2.3 v 1.79998 h 2.3 v 0.90001 h -2.3 v 1.80001 h 2.3 v 0.89998 h -2.3 v 1.80002 h 2.3 v 0.9 h -2.3 v 1.79999 h 2.3 v 0.90001 h -2.3 v 1.79998 h 2.3 v 0.90001 h -2.3 v 1.80001 h 2.3 v 0.89998 h -2.3 v -0.89998 -1.80001 -0.90001 -1.79998 -0.90001 -1.79999 -0.9 -1.80002 -0.89998 -1.80001 -0.90001 -1.79998 -0.90001 -0.89998 h -2.6 v 0.89998 h 1.7 v 0.90001 h -1.7 v 1.79998 h 1.7 v 0.90001 h -1.7 v 1.80001 h 1.7 v 0.89998 h -1.7 v 1.80002 h 1.7 v 0.9 h -1.7 v 1.79999 h 1.7 v 0.90001 h -1.7 v 1.79998 h 1.7 v 0.90001 h -1.7 v 1.80001 h 1.7 v 0.89998 h -1.7 v -0.89998 -1.80001 -0.90001 -1.79998 -0.90001 -1.79999 -0.9 -1.80002 -0.89998 -1.80001 -0.90001 -1.79998 -0.90001 -0.89998 h -3.2 v 0.89998 h 2.3 v 0.90001 h -2.3 v 1.79998 h 2.3 v 0.90001 h -2.3 v 1.80001 h 2.3 v 0.89998 h -2.3 v 1.80002 h 2.3 v 0.9 h -2.3 v 1.79999 h 2.3 v 0.90001 h -2.3 v 1.79998 h 2.3 v 0.90001 h -2.3 v 1.80001 h 2.3 v 0.89998 h -2.3 v -0.89998 -1.80001 -0.90001 -1.79998 -0.90001 -1.79999 -0.9 -1.80002 -0.89998 -1.80001 -0.90001 -1.79998 -0.90001 -0.89998 h -2.6 v 0.89998 h 1.7 v 0.90001 h -1.7 v 1.79998 h 1.7 v 0.90001 h -1.7 v 1.80001 h 1.7 v 0.89998 h -1.7 v 1.80002 h 1.7 v 0.9 h -1.7 v 1.79999 h 1.7 v 0.90001 h -1.7 v 1.79998 h 1.7 v 0.90001 h -1.7 v 1.80001 h 1.7 v 0.89998 h -1.7 v -0.89998 -1.80001 -0.90001 -1.79998 -0.90001 -1.79999 -0.9 -1.80002 -0.89998 -1.80001 -0.90001 -1.79998 -0.90001 -0.89998 h -3.2 v 0.89998 h 2.3 v 0.90001 h -2.3 v 1.79998 h 2.3 v 0.90001 h -2.3 v 1.80001 h 2.3 v 0.89998 h -2.3 v 1.80002 h 2.3 v 0.9 h -2.3 v 1.79999 h 2.3 v 0.90001 h -2.3 v 1.79998 h 2.3 v 0.90001 h -2.3 v 1.80001 h 2.3 v 0.89998 h -2.3 v -0.89998 -1.80001 -0.90001 -1.79998 -0.90001 -1.79999 -0.9 -1.80002 -0.89998 -1.80001 -0.90001 -1.79998 -0.90001 -0.89998 h -3.2 v 0.89998 h 2.3 v 0.90001 h -2.3 v 1.79998 h 2.3 v 0.90001 h -2.3 v 1.80001 h 2.3 v 0.89998 h -2.3 v 1.80002 h 2.3 v 0.9 h -2.3 v 1.79999 h 2.3 v 0.90001 h -2.3 v 1.79998 h 2.3 v 0.90001 h -2.3 v 1.80001 h 2.3 v 0.89998 h -2.3 v -0.89998 -1.80001 -0.90001 -1.79998 -0.90001 -1.79999 -0.9 -1.80002 -0.89998 -1.80001 -0.90001 -1.79998 -0.90001 -0.89998 h -2.6 v 0.89998 h 1.7 v 0.90001 h -1.7 v 1.79998 h 1.7 v 0.90001 h -1.7 v 1.80001 h 1.7 v 0.89998 h -1.7 v 1.80002 h 1.7 v 0.9 h -1.7 v 1.79999 h 1.7 v 0.90001 h -1.7 v 1.79998 h 1.7 v 0.90001 h -1.7 v 1.80001 h 1.7 v 0.89998 h -1.7 v -0.89998 -1.80001 -0.90001 -1.79998 -0.90001 -1.79999 -0.9 -1.80002 -0.89998 -1.80001 -0.90001 -1.79998 -0.90001 -0.89998 h -3.2 v 0.89998 h 2.3 v 0.90001 h -2.3 v 1.79998 h 2.3 v 0.90001 h -2.3 v 1.80001 h 2.3 v 0.89998 h -2.3 v 1.80002 h 2.3 v 0.9 h -2.3 v 1.79999 h 2.3 v 0.90001 h -2.3 v 1.79998 h 2.3 v 0.90001 h -2.3 v 1.80001 h 2.3 v 0.89998 h -2.3 v -0.89998 -1.80001 -0.90001 -1.79998 -0.90001 -1.79999 -0.9 -1.80002 -0.89998 -1.80001 -0.90001 -1.79998 -0.90001 -0.89998 h -2.6 v 0.89998 h 1.7 v 0.90001 h -1.7 v 1.79998 h 1.7 v 0.90001 h -1.7 v 1.80001 h 1.7 v 0.89998 h -1.7 v 1.80002 h 1.7 v 0.9 h -1.7 v 1.79999 h 1.7 v 0.90001 h -1.7 v 1.79998 h 1.7 v 0.90001 h -1.7 v 1.80001 h 1.7 v 0.89998 h -1.7 v -0.89998 -1.80001 -0.90001 -1.79998 -0.90001 -1.79999 -0.9 -1.80002 -0.89998 -1.80001 -0.90001 -1.79998 -0.90001 -0.89998 h -3.2 v 0.89998 h 2.3 v 0.90001 h -2.3 v 1.79998 h 2.3 v 0.90001 h -2.3 v 1.80001 h 2.3 v 0.89998 h -2.3 v 1.80002 h 2.3 v 0.9 h -2.3 v 1.79999 h 2.3 v 0.90001 h -2.3 v 1.79998 h 2.3 v 0.90001 h -2.3 v 1.80001 h 2.3 v 0.89998 h -2.3 v -0.89998 -1.80001 -0.90001 -1.79998 -0.90001 -1.79999 -0.9 -1.80002 -0.89998 -1.80001 -0.90001 -1.79998 -0.90001 -0.89998 h -2.6 v 0.89998 h 1.7 v 0.90001 h -1.7 v 1.79998 h 1.7 v 0.90001 h -1.7 v 1.80001 h 1.7 v 0.89998 h -1.7 v 1.80002 h 1.7 v 0.9 h -1.7 v 1.79999 h 1.7 v 0.90001 h -1.7 v 1.79998 h 1.7 v 0.90001 h -1.7 v 1.80001 h 1.7 v 0.89998 h -1.7 v -0.89998 -1.80001 -0.90001 -1.79998 -0.90001 -1.79999 -0.9 -1.80002 -0.89998 -1.80001 -0.90001 -1.79998 -0.90001 -0.89998 h -2.6 v 0.89998 h 1.7 v 0.90001 h -1.7 v 1.79998 h 1.7 v 0.90001 h -1.7 v 1.80001 h 1.7 v 0.89998 h -1.7 v 1.80002 h 1.7 v 0.9 h -1.7 v 1.79999 h 1.7 v 0.90001 h -1.7 v 1.79998 h 1.7 v 0.90001 h -1.7 v 1.80001 h 1.7 v 0.89998 h -1.7 v -0.89998 -1.80001 -0.90001 -1.79998 -0.90001 -1.79999 -0.9 -1.80002 -0.89998 -1.80001 -0.90001 -1.79998 -0.90001 -0.89998 h -3.0688 l 0.21283,-3.58156 0.28059,-3.57685 0.34827,-3.57092 0.41581,-3.56367 v -2.01724 l -1.2242,-0.16118 -0.0761,0.57814 v 16.79326 h 2.2116 v 0.90001 h -2.2501 l 0.0385,-0.90001 v -16.79326 l -0.0544,0.41328 -0.034,0.004 v 19.07606 h 2.3 v 0.9 h -2.3 v 1.80002 h 2.3 v 0.89998 h -2.3 v 1.80001 h 2.3 v 0.90001 h -2.3 v 1.79998 h 2.3 v 0.90001 h -2.3 v 1.79999 h 2.3 v 0.9 h -2.2501 v 1.80002 h 2.2501 v 0.89998 h -2.2116 l -0.0385,-0.89998 v -1.80002 h -0.0499 v -0.9 -1.79999 -0.90001 -1.79998 -0.90001 -1.80001 -0.89998 -1.80002 -0.9 -19.07606 l -0.3757,0.0433 -0.0515,0.39738 0.3829,0.1501 -0.0522,0.39671 h 0.003 l -0.4095,0.0492 -0.0495,0.39788 0.3846,0.14822 -0.0484,0.39719 -0.409,0.0515 -0.0477,0.39801 0.3856,0.14639 -0.0464,0.39712 -0.4089,0.0536 -0.0454,0.39852 0.3861,0.1443 -0.0441,0.39738 -0.4087,0.0557 -0.0433,0.3987 0.3869,0.1423 -0.042,0.39769 -0.4085,0.0579 -0.0413,0.3987 0.388,0.14031 -0.0403,0.39791 -0.4079,0.06 -0.0393,0.39888 0.3885,0.13819 -0.038,0.3982 -0.4076,0.0621 -0.0372,0.39918 0.3892,0.1361 -0.0359,0.39852 -0.4072,0.0643 -0.0351,0.39931 0.39,0.13409 -0.0341,0.3987 -0.4069,0.0664 -0.0328,0.39939 0.3905,0.13211 -0.0318,0.3987 -0.4067,0.0687 -0.0307,0.39953 0.3912,0.13017 -0.0297,0.3987 -0.4062,0.0708 -0.0287,0.39971 0.3921,0.12819 -0.0277,0.39902 -0.4059,0.0728 -0.0267,0.39999 0.3926,0.12592 -0.0254,0.3992 -0.4054,0.0749 -0.0246,0.40019 0.3933,0.1238 -0.0236,0.3993 -0.4051,0.0771 -0.0223,0.40029 0.3938,0.12182 -0.0212,0.39939 -0.4046,0.079 -0.0205,0.4005 0.3633,0.1102 v 0.4114 l -0.3923,0.0789 -0.0182,0.4005 0.3951,0.11771 -0.0172,0.39968 -0.4038,0.0833 -0.0162,0.4005 0.3959,0.1157 -0.0151,0.39971 -0.4033,0.0856 -0.0141,0.4005 0.3964,0.11358 -0.0129,0.39971 -0.403,0.0877 -0.0121,0.40079 0.3972,0.11131 -0.011,0.39989 -0.4023,0.0898 -0.01,0.40071 0.3977,0.10949 -0.009,0.3997 -0.4018,0.0918 -0.008,0.40079 0.3982,0.1074 -0.007,0.4 -0.4015,0.0938 -0.006,0.40111 0.3987,0.10509 -0.005,0.40003 -0.401,0.0959 -0.004,0.401 0.3992,0.103 -0.003,0.4 -0.4004,0.0982 z"
       inkscape:connector-curvature="0"
       sodipodi:insensitive="true" />
    <g
       id="g5461"
       inkscape:label="Schaltklaue"
       style="display:inline">
      <path
         inkscape:connector-curvature="0"
         d="m 316.76563,115.84134 v -6.1 h -10 v 10.5 h 10 v -3.5 l 0.3,-0.3 h 2.2 l 0.3,0.3 h 22 l 0.3,-0.3 h 2.2 l 0.3,0.3 v 1.0001 h -19.8 v 0.9 l 19.8,-1e-4 v 4.9 h -19.8 v 0.9 h 19.8 v 4.9 h -19.8 v 0.9 h 19.8 v 4.9 h -19.8 v 0.9 h 19.8 v 4.9 l -19.8,-1e-4 v 0.9001 h 19.8 v 4.9 l -19.8,1e-4 v 0.9 l 19.8,-10e-5 v 4.9 h -19.8 v 0.9 h 19.8 v 4.9 h -19.8 v 0.9 h 19.8 v 4.9 h -19.8 v 0.9 h 19.8 v 4.9 h -19.8 v 0.9 h 19.8 v 4.9 l -19.8,1e-4 -10e-5,0.8999 h 19.8001 v 4.9 h -19.8 v 0.9 h 19.8 v 4.9 h -19.8 v 0.9 h 19.8 v 4.9 h -19.8 v 0.9 h 19.8 v 4.9 h -19.8 v 0.9 h 19.8 v 4.9 l -19.8,1e-4 -10e-5,0.8999 h 19.8001 v 4.9 h -19.8 v 0.9001 h 19.8 v 4.8999 h -19.8 v 0.9 h 19.8 v 4.9 h -19.8 v 0.9 h 19.8 v 4.9 h -19.8 v 0.9 h 19.8 v 5.1 l 1.3,1.3001 -0.65,0.6499 -3e-4,2.6e-4 v -2.6e-4 l -0.2999,0.29989 h -2.4001 l -0.3,-0.29989 h -28.5 l -0.3,0.29989 h -2.4001 l -0.2999,-0.29989 10e-5,0.3 v 0.30001 l -10e-5,0.29998 0.3,-0.29998 h 2.4 l 0.3,0.29998 h 28.5 l 0.2999,-0.2999 h 2.4001 l 0.3,0.2999 v 0 h 3e-4 -2e-4 l 0.3,0.30001 v 2.39999 l -0.3,0.30001 v 27.44999 l -0.3,0.30001 h -2.4 l -0.3,-0.30001 h -28.5 l -0.3,0.2999 h -2.4001 l -0.5998,-0.59981 v -2.40008 l 0.2999,-0.30002 v -24.44998 h -10e-5 l -0.2999,-0.30001 v -2.39999 l 0.2999,-0.30001 v -9.99999 h -10 v 9.99999 h 9.1 l 0.3,0.30001 v 2.39999 l -0.3,0.30001 h 1e-4 v 24.44998 l 0.3,0.30002 v 2.4 l -0.95,0.94999 -1.3,-1.3 h -3.7 v 0.9 h 2.3 v 0.90001 h -2.3 v -0.90001 -0.9 h -1.4 v -19.79999 h -0.9 v 19.79999 h -0.3 v 0.9 h 1.7 v 0.90001 h -1.7 v -0.90001 -0.9 h -2.6 v 0.9 h 1.7 v 0.90001 h -1.7 v -0.90001 -0.9 h -2 v -19.79999 h -0.9 v 19.79999 h -0.3 v 0.9 h 2.3 v 0.90001 h -2.3 v -0.90001 -0.9 h -2.6 v 0.9 h 1.7 v 0.90001 h -1.7 v -0.90001 -0.9 h -2 v -19.79999 h -0.9 v 19.79999 h -0.3 v 0.9 h 2.3 v 0.90001 h -2.3 v -0.90001 -0.9 h -2.6 v 0.9 h 1.7 v 0.90001 h -1.7 v -0.90001 -0.9 h -2 v -19.79999 h -0.9 v 19.79999 h -0.3 v 0.9 h 2.3 v 0.90001 h -2.3 v -0.90001 -0.9 h -3.2 v 0.9 h 2.3 v 0.90001 h -2.3 v -0.90001 -0.9 h -1.4 v -19.79999 h -0.9 v 19.79999 h -0.3 v 0.9 h 1.7 v 0.90001 h -1.7 v -0.90001 -0.9 h -3.2 v 0.9 h 2.3 v 0.90001 h -2.3 v -0.90001 -0.9 h -1.4 v -19.79999 h -0.9 v 19.79999 h -0.3 v 0.9 h 1.7 v 0.90001 h -1.7 v -0.90001 -0.9 h -3.2 v 0.9 h 2.3 v 0.90001 h -2.3 v -0.90001 -0.9 h -1.4 v -19.79999 h -0.9 v 19.79999 h -0.3 v 0.9 h 1.7 v 0.90001 h -1.7 v -0.90001 -0.9 h -3.2 v 0.9 h 2.3 v 0.90001 h -2.3 v -0.90001 -0.9 h -1.4 v -19.79999 h -0.9 v 19.79999 h -0.3 v 0.9 h 1.7 v 0.90001 h -1.7 v -0.90001 -0.9 h -3.2 v 0.9 h 2.3 v 0.90001 h -2.3 v -0.90001 -0.9 h -1.4 v -19.79999 h -0.9 v 19.79999 h -0.3 v 0.9 h 1.7 v 0.90001 h -1.7 v -0.90001 -0.9 h -3.2 v 0.9 h 2.3 v 0.90001 h -2.3 v -0.90001 -0.9 h -1.4 v -19.79999 h -0.9 v 19.79999 h -0.3 v 0.9 h 1.7 v 0.90001 h -1.7 v -0.90001 -0.9 h -3.2 v 0.9 h 2.3 v 0.90001 h -2.3 v -0.90001 -0.9 h -1.4 v -19.79999 h -0.9 v 19.79999 h -0.3 v 0.9 h 1.7 v 0.90001 h -1.7 v -0.90001 -0.9 h -3.2 v 0.9 h 2.3 v 0.90001 h -2.3 v -0.90001 -0.9 h -1.4 v -19.79999 h -0.9 v 19.79999 h -0.3 v 0.9 h 1.7 v 0.90001 h -1.7 v -0.90001 -0.9 h -3.2 v 0.9 h 2.3 v 0.90001 h -2.3 v -0.90001 -0.9 h -1.4 v -19.79999 h -0.9 v 19.79999 h -0.3 v 0.9 h 1.7 v 0.90001 h -1.7 v -0.90001 -0.9 h -3.2 v 0.9 h 2.3 v 0.90001 h -2.3 v -0.90001 -0.9 h -1.4 v -19.79999 h -0.9 v 19.79999 h -0.3 v 0.9 h 1.7 v 0.90001 h -1.7 v -0.90001 -0.9 h -3.2 v 0.9 h 2.3 v 0.90001 h -2.3 v -0.90001 -0.9 h -1.4 v -19.79999 h -0.9 v 19.79999 h -0.3 v 0.9 h 1.7 v 0.90001 h -1.7 v -0.90001 -0.9 h -3.2 v 0.9 h 2.3 v 0.90001 h -2.3 v -0.90001 -0.9 h -1.4 v -19.79999 h -0.9 v 19.79999 h -0.3 v 0.9 h 1.7 v 0.90001 h -1.7 v -0.90001 -0.9 h -3.2 v 0.9 h 2.3 v 0.90001 h -2.3 v -0.90001 -0.9 h -1.4 v -19.79999 h -0.9 v 19.79999 h -0.3 v 0.9 h 1.7 v 0.90001 h -1.7 v -0.90001 -0.9 h -3.2 v 0.9 h 2.3 v 0.90001 h -2.3 v -0.90001 -0.9 h -1.4 v -19.79999 h -0.9 v 19.79999 h -0.3 v 0.9 h 1.7 v 0.90001 h -1.7 v -0.90001 -0.9 h -3.2 v 0.9 h 2.3 v 0.90001 h -2.3 v -0.90001 -0.9 h -1.4 v -19.79999 h -0.9 v 19.79999 h -0.3 v 0.9 h 1.7 v 0.90001 h -1.7 v -0.90001 -0.9 h -3.2 v 0.9 h 2.3 v 0.90001 h -2.3 v -0.90001 -0.9 h -1.4 v -19.79999 h -0.9 v 19.79999 h -0.9 v 0.9 h 2.3 v 0.90001 h -2.3 v -0.90001 -0.9 h -0.1 l -0.3,-0.29999 v -2.20001 l 0.3,-0.29998 v -22 l -0.3,-0.30001 v -2.20001 l 0.3,-0.29999 h 3.5 v -10 h -10.5 v 10 h 6.1 l 0.3,0.29999 v 2.20001 l -0.3,0.30001 v 22 l 0.3,0.29998 v 2.20001 l -1.2,1.19999 h -1.8 v -0.94998 h -0.9 v 2.79998 h 0.9 v -0.94999 h 1.8 l 1.2,1.19999 v 2.20001 l -0.3,0.29999 v 21.99999 l 0.3,0.30002 v 2.20001 l -0.3,0.29998 h -6.1 v 10.00001 h 10.5 v -10.00001 h -3.5 l -0.3,-0.29998 v -2.20001 l 0.3,-0.30002 v -21.99999 l -0.3,-0.29999 v -2.20001 l 0.3,-0.29998 h 1 v 19.79998 h 0.9 v -19.79998 h 4.9 v 19.79998 h 0.9 v -19.79998 h 4.9 v 19.79998 h 0.9 v -19.79998 h 4.9 v 19.79998 h 0.9 v -19.79998 h 4.9 v 19.79998 h 0.9 v -19.79998 h 4.9 v 19.79998 h 0.9 v -19.79998 h 4.9 v 19.79998 h 0.9 v -19.79998 h 4.9 v 19.79998 h 0.9 v -19.79998 h 4.9 v 19.79998 h 0.9 v -19.79998 h 4.9 v 19.79998 h 0.9 v -19.79998 h 4.9 v 19.79998 h 0.9 v -19.79998 h 4.9 v 19.79998 h 0.9 v -19.79998 h 4.9 v 19.79998 h 0.9 v -19.79998 h 4.9 v 19.79998 h 0.9 v -19.79998 h 4.9 v 19.79998 h 0.9 v -19.79998 h 4.9 v 19.79998 h 0.9 v -19.79998 h 4.9 v 19.79998 h 0.9 v -19.79998 h 4.9 v 19.79998 h 0.9 v -19.79998 h 4.9 v 19.79998 h 0.9 v -19.79998 h 4.9 v 19.79998 h 0.9 v -19.79998 h 6.8 l 1.45,-1.45003 h 2.4 l 0.3,0.30002 h 28.5 l 0.3,-0.30002 h 2.4 l 0.3,0.30002 v 0.05 h 1.4 v -0.10001 l 0.7909,-0.2 h 0.1091 v -0.4 h -0.1091 l -0.7909,-0.19999 v -0.1 h -0.5 v -27.40001 l -0.2999,-0.29991 v -2.39998 l 1e-4,-1.1e-4 v 1.1e-4 l 0.2289,-0.22902 1.2211,-1.22099 v -6.8001 h 19.8 v -0.9 h -19.8 v -4.9 h 19.8 v -0.9 h -19.8 v -4.9 h 19.8 v -0.9 h -19.8 v -4.8999 h 19.8 v -0.9001 h -19.8 v -4.9 h 19.8 v -0.9 l -19.8,1e-4 v -4.9001 h 19.8 v -0.9 h -19.8 v -4.9 h 19.8 v -0.9 h -19.8 v -4.9 h 19.8 v -0.9 h -19.8 v -4.9 h 19.8 v -0.9 h -19.8 v -4.8999 l 19.8,-1e-4 v -0.9 l -19.8,1e-4 v -4.9001 h 19.8 v -0.9 h -19.8 v -4.9 h 19.8 v -0.9 h -19.8 v -4.9 h 19.8 v -0.9 h -19.8 v -4.9 h 19.8 v -0.9 h -19.8 v -4.8999 l 19.8,-1e-4 v -0.9 l -19.8,1e-4 v -4.9001 h 19.8 v -0.9 l -19.8,-1e-4 v -4.8999 h 19.8 v -0.9 h -19.8 v -4.9 h 19.8 v -0.9 h -19.8 v -4.9 h 19.8 v -0.9 h -19.8 v -4.8999 l 19.8,-1e-4 v -0.9 l -19.8,10e-5 v -1 l 0.3,-0.3001 h 2.1999 l 0.3001,0.3001 22,-10e-5 0.3,-0.3 h 2.2 l 0.3,0.3 v 3.5 h 10 v -10.5 l -10,10e-5 v 6.0999 l -0.2999,0.2999 h -2.2002 l -0.2999,-0.2999 -22,1e-4 -0.3,0.2999 h -2.2001 l -1.1999,-1.1999 v -1.8001 h 0.95 v -0.9 h -2.8 v 0.9 h 0.95 v 1.8001 1.9 h 0.9 v 2.2999 h -0.9 v 0.9 h 0.9 v 2.3001 l -0.9,-1e-4 v 0.9 h 0.9 v 1.7 h -0.9 v 0.9 h 0.9 v 2.3 h -0.9 v 0.9 h 0.9 v 1.7 h -0.9 v 0.9 h 0.9 v 2.3 h -0.9 v 0.9 h 0.9 v 1.7 h -0.9 v 0.9001 h 0.9 v 2.2999 h -0.9 v 0.9 h 0.9 v 1.7 h -0.9 v 0.9 h 0.9 v 2.3 h -0.9 v 0.9 h 0.9 v 1.7 h -0.9 v 0.9 h 0.9 v 2.3 h -0.9 v 0.9 h 0.9 v 1.7 h -0.9 v 0.9 h 0.9 v 2.3 h -0.9 v 0.9001 h 0.9 v 1.6999 0.8999 2.3001 h -0.9 v 0.9 h 0.9 v 1.7001 h -0.9 v 0.9 h 0.9 v 2.2999 h -0.9 v 0.9 h 0.9 v 1.7 h -0.9 v 0.9 h 0.9 v 2.3 h -0.9 v 0.9 h 0.9 v 1.7 h -0.9 v 0.9 h 0.9 v 2.3 0.8999 1.7001 h -0.9 v 0.9 h 0.9 v 2.3001 h -0.9 v 0.9 h 0.9 v 1.6998 l -0.9,1e-4 v 0.8999 h 0.9 v 2.3001 h -0.9 v 0.9 h 0.9 v 1.7001 h -0.9 v 0.9 h 0.9 v 2.2999 h -0.9 v 0.9 h 0.9 v 1.7 h -0.9 v 0.9 h 0.9 v 2.3 h -0.9 v 0.9 h 0.9 v 1.7 h -0.9 v 0.9 h 0.9 v 2.2999 l -0.9,1e-4 v 0.8999 h 0.9 v 2.3001 h -0.9 v 0.9 h 0.9 v 1.7001 h -0.9 v 0.9 h 0.9 v 2.2999 h -0.9 v 0.9 h 0.9 v 1.7 h -0.9 v 0.9 h 0.9 v 2.3 h -0.9 v 0.9 h 0.9 v 1.7 h -0.9 v 0.9 h 0.9 v 1.7 h -0.9 v 0.9 h 0.9 v 2.3 h -0.9 v -2.3 -0.9 -1.7 -0.9 -1.7 -0.9 -2.3 -0.9 -1.7 -0.9 -2.2999 -0.9 -1.7001 -0.9 -2.3001 -0.8999 -2.3 -0.9 -1.7 -0.9 -2.3 -0.9 -1.7 -0.9 -2.2999 -0.9 -1.7001 -0.9 -2.3001 -0.8999 -1.6999 -0.9 -2.3001 -0.9 -1.7 l 0.9,-1e-4 v -0.8999 h -0.9 v -2.3 -0.9 -1.7 -0.9 -2.3 -0.9 -1.7 -0.9 -2.2999 -0.9 -1.7001 -0.9 -2.3 l 0.9,-1e-4 v -0.8999 h -0.9 v -1.6999 -0.9001 -2.3 -0.9 -1.7 -0.9 -2.3 -0.9 -1.7 -0.9 -2.3 -0.9 -1.7 -0.9 -2.2999 -0.9001 -1.7 -0.9 -2.3 -0.9 -1.7 -0.9 -2.3 -0.9 -1.7 -0.9 -2.3 -0.9 -2.2999 -1.9 l -1.2,1.1999 h -2.5 l 0.3,-1e-4 -0.3,-0.2999 h -22 l -0.3001,0.3 h -2.1999 z"
         style="display:inline;fill:#ff5555;stroke:#000000;stroke-width:0;stroke-miterlimit:4;stroke-dasharray:none"
         id="path5337"
         inkscape:label="Rotor" />
      <path
         inkscape:connector-curvature="0"
         d="m 185.76543,269.74132 v -1.34998 h -0.9 v -0.90001 h 0.9 v -1.35001 h 1.8 v 0.90001 h 0.9 v -24.75 h -5 v 51.30001 h 5 v -24.75 h -0.9 v 0.89998 z"
         style="fill:#c8c4b7;stroke:#000000;stroke-width:0;stroke-miterlimit:4;stroke-dasharray:none"
         id="path5341"
         inkscape:label="Stopfen " />
      <path
         inkscape:connector-curvature="0"
         d="m 191.46543,244.99133 h 1.7 v 19.80001 h 0.9 v -19.80001 h 4.9 v 19.80001 h 0.9 v -19.80001 h 4.9 v 19.80001 h 0.9 v -19.80001 h 4.9 v 19.80001 h 0.9 v -19.80001 h 4.9 v 19.80001 h 0.9 v -19.80001 h 4.9 v 19.80001 h 0.9 v -19.80001 h 4.9 v 19.80001 h 0.9 v -19.80001 h 4.9 v 19.80001 h 0.9 v -19.80001 h 4.9 v 19.80001 h 0.9 v -19.80001 h 4.9 v 19.80001 h 0.9 v -19.80001 h 4.9 v 19.80001 h 0.9 v -19.80001 h 4.9 v 19.80001 h 0.9 v -19.80001 h 4.9 v 19.80001 h 0.9 v -19.80001 h 4.9 v 19.80001 h 0.9 v -19.80001 h 4.9 v 19.80001 h 0.9 v -19.80001 h 4.9 v 19.80001 h 0.9 v -19.80001 h 4.9 v 19.80001 h 0.9 v -19.80001 h 4.9 v 19.80001 h 0.9 v -19.80001 h 4.9 v 19.80001 h 0.9 v -19.80001 h 4.9 v 19.80001 h 0.9 v -23.40001 h -112.8 z"
         style="fill:#0000ff;stroke:#000000;stroke-width:0;stroke-miterlimit:4;stroke-dasharray:none"
         id="path5343"
         inkscape:label="Elektrode 22" />
      <path
         inkscape:connector-curvature="0"
         d="m 322.76563,119.44124 v -1.6998 l -3.6,-1e-4 -1e-4,112.8 h 23.4 v -0.9 h -19.7999 v -4.9 h 19.7999 v -0.9 h -19.7999 v -4.9 h 19.7999 v -0.9 h -19.7999 v -4.9 h 19.8 v -0.9 h -19.8 v -4.9 h 19.8 v -0.9 h -19.8 v -4.9 h 19.7999 v -0.9 h -19.7999 v -4.9 h 19.7999 v -0.9 h -19.7999 v -4.9 h 19.7999 v -0.9 h -19.7999 v -4.9 h 19.8 v -0.9 l -19.8,1e-4 v -4.9001 h 19.8 v -0.9 h -19.8 v -4.9 h 19.7999 v -0.9 h -19.7999 v -4.9 h 19.7999 v -0.9 h -19.7999 v -4.9 h 19.7999 v -0.9 h -19.7999 v -4.8999 l 19.8,-10e-5 v -0.9 l -19.8,1e-4 v -4.9001 h 19.8 v -0.9 l -19.8,-1e-4 v -4.8999 h 19.7999 v -0.9 h -19.7999 v -4.9 h 19.7999 v -0.9 h -19.7999 v -4.9 h 19.7999 v -0.9 h -19.7999 v -4.8999 l 19.8,-1e-4 v -0.9 l -19.8,1e-4 v -4.9002 l 19.8,1e-4 v -0.9 z"
         style="fill:#0000ff;stroke:#000000;stroke-width:0;stroke-miterlimit:4;stroke-dasharray:none"
         id="path5349"
         inkscape:label="Elektrode 21" />
      <path
         inkscape:connector-curvature="0"
         d="m 320.06553,109.74134 10e-5,5 2.7,-10e-5 22.05,10e-5 v -0.9 h -0.9 v -1.8 h 1.35 v -0.8999 h 0.9 v 0.9 l 22.5,-10e-5 -21.15,10e-5 v 1.7998 l 21.15,1e-4 -22.05,-1e-4 v 0.9 h 24.75 v -4.9999 z"
         style="fill:#c8c4b7;stroke:#000000;stroke-width:0;stroke-miterlimit:4;stroke-dasharray:none"
         id="path5351"
         inkscape:label="Stopfen " />
      <path
         inkscape:connector-curvature="0"
         d="m 196.46543,290.89135 v -19.80002 h -0.9 v 19.80002 h -4.1 v 3.6 h 109.4 v -23.40002 h -0.9 v 19.80002 h -4.9 v -19.80002 h -0.9 v 19.80002 h -4.9 v -19.80002 h -0.9 v 19.80002 h -4.9 v -19.80002 h -0.9 v 19.80002 h -4.9 v -19.80002 h -0.9 v 19.80002 h -4.9 v -19.80002 h -0.9 v 19.80002 h -4.9 v -19.80002 h -0.9 v 19.80002 h -4.9 v -19.80002 h -0.9 v 19.80002 h -4.9 v -19.80002 h -0.9 v 19.80002 h -4.9 v -19.80002 h -0.9 v 19.80002 h -4.9 v -19.80002 h -0.9 v 19.80002 h -4.9 v -19.80002 h -0.9 v 19.80002 h -4.9 v -19.80002 h -0.9 v 19.80002 h -4.9 v -19.80002 h -0.9 v 19.80002 h -4.9 v -19.80002 h -0.9 v 19.80002 h -4.9 v -19.80002 h -0.9 v 19.80002 h -4.9 v -19.80002 h -0.9 v 19.80002 h -4.9 v -19.80002 h -0.9 v 19.80002 z"
         style="display:inline;fill:#aad400;stroke:#000000;stroke-width:0;stroke-miterlimit:4;stroke-dasharray:none"
         id="path5361"
         inkscape:label="Elektrode 12" />
      <path
         inkscape:connector-curvature="0"
         d="m 348.86563,221.34134 h 19.8 v 4.9 h -19.8001 v 0.9 h 23.4 l 10e-5,-109.3999 h -3.6 v 4.0999 h -19.8 v 0.9 h 19.8 v 4.9 h -19.8 v 0.9 h 19.8 v 4.9 h -19.8 v 0.9 h 19.8 v 4.9001 h -19.8 l -1e-4,0.8999 h 19.8001 v 4.9 h -19.8 v 0.9 h 19.8 v 4.9 h -19.8 v 0.9 h 19.8 v 4.9 h -19.8 v 0.9 h 19.8 v 4.9 h -19.8 v 0.9 h 19.8 v 4.9 h -19.8001 v 0.9 h 19.8001 v 4.9 h -19.8 v 0.9 h 19.8 v 4.9 h -19.8 v 0.9 h 19.8 v 4.9 h -19.8 v 0.9 h 19.8 v 4.9 h -19.8 v 0.9 h 19.8 v 4.9 h -19.8001 v 0.9 h 19.8001 v 4.9 h -19.8 v 0.9001 h 19.8 v 4.8999 h -19.8 v 0.9 h 19.8 v 4.9 h -19.8 v 0.9 h 19.8 v 4.9 h -19.8 z"
         style="display:inline;fill:#aad400;stroke:#000000;stroke-width:0;stroke-miterlimit:4;stroke-dasharray:none"
         id="path5363"
         inkscape:label="Elektrode 11" />
    </g>
  </g>
</svg>
