<?xml version="1.0" encoding="UTF-8" standalone="no"?>
<!-- Created with Inkscape (http://www.inkscape.org/) -->

<svg
   xmlns:dc="http://purl.org/dc/elements/1.1/"
   xmlns:cc="http://creativecommons.org/ns#"
   xmlns:rdf="http://www.w3.org/1999/02/22-rdf-syntax-ns#"
   xmlns:svg="http://www.w3.org/2000/svg"
   xmlns="http://www.w3.org/2000/svg"
   xmlns:sodipodi="http://sodipodi.sourceforge.net/DTD/sodipodi-0.dtd"
   xmlns:inkscape="http://www.inkscape.org/namespaces/inkscape"
   width="118.34mm"
   height="87.400002mm"
   viewBox="0 0 118.33999 87.400002"
   version="1.1"
   id="svg5543"
   inkscape:version="0.92.4 (5da689c313, 2019-01-14)"
   sodipodi:docname="Tang_resonator.svg">
  <title
     id="title5559">Tang_resonator</title>
  <defs
     id="defs5537" />
  <sodipodi:namedview
     id="base"
     pagecolor="#ffffff"
     bordercolor="#666666"
     borderopacity="1.0"
     inkscape:pageopacity="0.0"
     inkscape:pageshadow="2"
     inkscape:zoom="0.35"
     inkscape:cx="255.09179"
     inkscape:cy="579.39945"
     inkscape:document-units="mm"
     inkscape:current-layer="layer1"
     showgrid="false"
     fit-margin-top="0"
     fit-margin-left="0"
     fit-margin-right="0"
     fit-margin-bottom="0"
     inkscape:window-width="1920"
     inkscape:window-height="1017"
     inkscape:window-x="-8"
     inkscape:window-y="-8"
     inkscape:window-maximized="1" />
  <metadata
     id="metadata5540">
    <rdf:RDF>
      <cc:Work
         rdf:about="">
        <dc:format>image/svg+xml</dc:format>
        <dc:type
           rdf:resource="http://purl.org/dc/dcmitype/StillImage" />
        <dc:title>Tang_resonator</dc:title>
        <cc:license
           rdf:resource="http://creativecommons.org/licenses/by-nc/4.0/" />
        <dc:description>Folded flexure comb drive resonator</dc:description>
        <dc:publisher>
          <cc:Agent>
            <dc:title>vladimir.kolchuzhin@ieee.org</dc:title>
          </cc:Agent>
        </dc:publisher>
      </cc:Work>
      <cc:License
         rdf:about="http://creativecommons.org/licenses/by-nc/4.0/">
        <cc:permits
           rdf:resource="http://creativecommons.org/ns#Reproduction" />
        <cc:permits
           rdf:resource="http://creativecommons.org/ns#Distribution" />
        <cc:requires
           rdf:resource="http://creativecommons.org/ns#Notice" />
        <cc:requires
           rdf:resource="http://creativecommons.org/ns#Attribution" />
        <cc:prohibits
           rdf:resource="http://creativecommons.org/ns#CommercialUse" />
        <cc:permits
           rdf:resource="http://creativecommons.org/ns#DerivativeWorks" />
      </cc:License>
    </rdf:RDF>
  </metadata>
  <g
     inkscape:label="Ebene 1"
     inkscape:groupmode="layer"
     id="layer1"
     transform="translate(-38.340297,-214.73278)">
    <path
       id="path4658"
       d="m 59.053949,296.9858 v -12.83975 h -0.51318 v 17.98169 h 77.954191 v -17.98169 h -0.51319 v 12.83975 h -1.288 v -12.83975 h -0.51319 v 12.83975 h -1.288 v -12.83975 h -0.51319 v 12.83975 h -1.288 v -12.83975 h -0.51318 v 12.83975 h -1.28801 v -12.83975 h -0.51318 v 12.83975 h -1.288 v -12.83975 h -0.51319 v 12.83975 h -1.288 v -12.83975 h -0.51319 v 12.83975 h -1.288 v -12.83975 h -0.51318 v 12.83975 h -1.28801 v -12.83975 h -0.51318 v 12.83975 h -1.288 v -12.83975 h -0.51319 v 12.83975 h -1.288 v -12.83975 h -0.51319 v 12.83975 h -1.288 v -12.83975 h -0.51319 v 12.83975 h -1.288 v -12.83975 h -0.51318 v 12.83975 h -1.288 v -12.83975 h -0.51319 v 12.83975 h -1.288 v -12.83975 h -0.51319 v 12.83975 h -1.288 v -12.83975 h -0.51319 v 12.83975 h -1.28799 v -12.83975 h -0.51319 v 12.83975 h -1.288 v -12.83975 h -0.51319 v 12.83975 h -1.288 v -12.83975 h -0.51319 v 12.83975 h -1.288 v -12.83975 h -0.51318 v 12.83975 h -1.27794 v -12.83975 h -0.523251 v 12.83975 h -1.27794 v -12.83975 h -0.52325 v 12.83975 h -1.27794 v -12.83975 h -0.523251 v 12.83975 h -1.27793 v -12.83975 h -0.52325 v 12.83975 h -1.27794 V 284.14605 H 92.75327 v 12.83975 h -1.27794 v -12.83975 h -0.523251 v 12.83975 h -1.27794 v -12.83975 h -0.523251 v 12.83975 h -1.277929 v -12.83975 h -0.513191 v 12.83975 h -1.288 V 284.14605 H 85.55858 v 12.83975 h -1.288 v -12.83975 h -0.513191 v 12.83975 h -1.288 v -12.83975 h -0.51318 v 12.83975 h -1.288 v -12.83975 h -0.513191 v 12.83975 h -1.288 V 284.14605 H 78.35383 v 12.83975 h -1.288002 v -12.83975 h -0.513189 v 12.83975 h -1.288 v -12.83975 h -0.51318 v 12.83975 h -1.28801 V 284.14605 H 72.950268 V 296.9858 H 71.662269 V 284.14605 H 71.149077 V 296.9858 H 69.861078 V 284.14605 H 69.347889 V 296.9858 H 68.05989 v -12.83975 h -0.513191 v 12.83975 h -1.288 v -12.83975 h -0.51318 v 12.83975 h -1.288 v -12.83975 h -0.51319 v 12.83975 h -1.288001 v -12.83975 h -0.51319 v 12.83975 h -1.287999 v -12.83975 h -0.513191 v 12.83975 h -1.287999"
       style="fill:#0000ff;stroke:#2727ff;stroke-width:0.0100625px;stroke-linecap:butt;stroke-linejoin:round;stroke-miterlimit:4;stroke-dasharray:none;stroke-opacity:1"
       inkscape:connector-curvature="0" />
    <path
       id="path4666"
       d="m 58.540769,232.75686 h 0.51318 v -12.84981 h 1.287999 v 12.84981 h 0.513191 v -12.84981 h 1.287999 v 12.84981 h 0.51319 v -12.84981 h 1.288001 v 12.84981 h 0.51319 v -12.84981 h 1.288 v 12.84981 h 0.51318 v -12.84981 h 1.288 v 12.84981 h 0.513191 v -12.84981 h 1.287999 v 12.84981 h 0.513189 v -12.84981 h 1.287999 v 12.84981 h 0.513192 v -12.84981 h 1.287999 v 12.84981 h 0.513181 v -12.84981 h 1.28801 v 12.84981 h 0.51318 v -12.84981 h 1.288 v 12.84981 h 0.513189 v -12.84981 h 1.288002 v 12.84981 h 0.513188 v -12.84981 h 1.288 v 12.84981 h 0.513191 v -12.84981 h 1.288 v 12.84981 h 0.51318 v -12.84981 h 1.288 v 12.84981 h 0.513191 v -12.84981 h 1.287999 v 12.84981 h 0.513189 v -12.84981 h 1.288 v 12.84981 h 0.513191 v -12.84981 h 1.277929 v 12.84981 h 0.523251 v -12.84981 h 1.27794 v 12.84981 h 0.523251 v -12.84981 h 1.27794 v 12.84981 h 0.523248 v -12.84981 h 1.27794 v 12.84981 h 0.52325 v -12.84981 h 1.27793 v 12.84981 h 0.523251 v -12.84981 h 1.27794 v 12.84981 h 0.52325 v -12.84981 h 1.27794 v 12.84981 h 0.523251 v -12.84981 h 1.27794 v 12.84981 h 0.51318 v -12.84981 h 1.288 v 12.84981 h 0.51319 v -12.84981 h 1.288 v 12.84981 h 0.51319 v -12.84981 h 1.288 v 12.84981 h 0.51319 v -12.84981 h 1.28799 v 12.84981 h 0.51319 v -12.84981 h 1.288 v 12.84981 h 0.51319 v -12.84981 h 1.288 v 12.84981 h 0.51319 v -12.84981 h 1.288 v 12.84981 h 0.51318 v -12.84981 h 1.288 v 12.84981 h 0.51319 v -12.84981 h 1.288 v 12.84981 h 0.51319 v -12.84981 h 1.288 v 12.84981 h 0.51319 v -12.84981 h 1.288 v 12.84981 h 0.51318 v -12.84981 h 1.28801 v 12.84981 h 0.51318 v -12.84981 h 1.288 v 12.84981 h 0.51319 v -12.84981 h 1.288 v 12.84981 h 0.51319 v -12.84981 h 1.288 v 12.84981 h 0.51318 v -12.84981 h 1.28801 v 12.84981 h 0.51318 v -12.84981 h 1.288 v 12.84981 h 0.51319 v -12.84981 h 1.288 v 12.84981 h 0.51319 v -12.84981 h 1.288 v 12.84981 h 0.51319 V 214.76511 H 58.540769 v 17.99175"
       style="fill:#0000ff;stroke:#2727ff;stroke-width:0.0100625px;stroke-linecap:butt;stroke-linejoin:round;stroke-miterlimit:4;stroke-dasharray:none;stroke-opacity:1"
       inkscape:connector-curvature="0" />
    <path
       id="path4674"
       d="m 59.949518,240.46474 v -12.84982 h -0.51319 v 17.98169 h 31.646561 v 3.85394 l -0.644001,0.644 h -52.09356 v 16.70375 h 52.09356 l 0.644001,0.644 v 3.85393 H 59.436328 v 17.98169 h 0.51319 v -12.83975 h 1.288001 v 12.83975 h 0.51318 v -12.83975 h 1.287999 v 12.83975 h 0.513191 v -12.83975 h 1.288 v 12.83975 h 0.513189 v -12.83975 h 1.288 v 12.83975 h 0.513191 v -12.83975 h 1.287999 v 12.83975 h 0.513181 v -12.83975 h 1.28801 v 12.83975 h 0.513181 v -12.83975 h 1.287999 v 12.83975 h 0.513189 v -12.83975 h 1.288002 v 12.83975 h 0.513188 v -12.83975 h 1.288 v 12.83975 h 0.513191 v -12.83975 h 1.288 v 12.83975 h 0.51318 v -12.83975 h 1.288 v 12.83975 h 0.513191 v -12.83975 h 1.288 v 12.83975 h 0.513188 v -12.83975 h 1.288 v 12.83975 h 0.513191 v -12.83975 h 1.287999 v 12.83975 h 0.513181 v -12.83975 h 1.288 v 12.83975 h 0.513191 v -12.83975 h 1.287999 v 12.83975 h 0.513189 v -12.83975 h 1.288002 v 12.83975 h 0.513188 v -12.83975 h 1.288 v 12.83975 h 0.513181 v -12.83975 h 1.287999 v 12.83975 h 0.513191 v -12.83975 h 1.288 v 12.83975 h 0.513191 v -12.83975 h 1.288 v 12.83975 h 0.513188 v -12.83975 h 1.288 v 12.83975 h 0.51318 v -12.83975 h 1.288002 v 12.83975 h 0.51319 v -12.83975 h 1.288 v 12.83975 h 0.51319 v -12.83975 h 1.288 v 12.83975 h 0.51319 v -12.83975 h 1.288 v 12.83975 h 0.51318 v -12.83975 h 1.288 v 12.83975 h 0.51319 v -12.83975 h 1.288 v 12.83975 h 0.51319 v -12.83975 h 1.288 v 12.83975 h 0.51319 v -12.83975 h 1.28799 v 12.83975 h 0.51319 v -12.83975 h 1.288 v 12.83975 h 0.51319 v -12.83975 h 1.288 v 12.83975 h 0.51319 v -12.83975 h 1.288 v 12.83975 h 0.51318 v -12.83975 h 1.288 v 12.83975 h 0.51319 v -12.83975 h 1.288 v 12.83975 h 0.51319 v -12.83975 h 1.288 v 12.83975 h 0.51319 v -12.83975 h 1.288 v 12.83975 h 0.51318 v -12.83975 h 1.28801 v 12.83975 h 0.51318 v -12.83975 h 1.288 v 12.83975 h 0.51319 v -12.83975 h 1.288 v 12.83975 h 0.51319 v -12.83975 h 1.288 v 12.83975 h 0.51319 v -12.83975 h 1.288 v 12.83975 h 0.51318 v -17.98169 h -31.64656 v -3.85393 l 0.644,-0.644 h 52.09356 v -16.70375 h -52.09356 l -0.644,-0.644 v -3.85394 h 31.64656 v -17.98169 h -0.51318 v 12.84982 h -1.288 v -12.84982 h -0.51319 v 12.84982 h -1.288 v -12.84982 h -0.51319 v 12.84982 h -1.288 v -12.84982 h -0.51319 v 12.84982 h -1.288 v -12.84982 h -0.51318 v 12.84982 h -1.28801 v -12.84982 h -0.51318 v 12.84982 h -1.288 v -12.84982 h -0.51319 v 12.84982 h -1.288 v -12.84982 h -0.51319 v 12.84982 h -1.288 v -12.84982 h -0.51319 v 12.84982 h -1.288 v -12.84982 h -0.51318 v 12.84982 h -1.288 v -12.84982 h -0.51319 v 12.84982 h -1.288 v -12.84982 h -0.51319 v 12.84982 h -1.288 v -12.84982 h -0.51319 v 12.84982 h -1.28799 v -12.84982 h -0.51319 v 12.84982 h -1.288 v -12.84982 h -0.51319 v 12.84982 h -1.288 v -12.84982 h -0.51319 v 12.84982 h -1.288 v -12.84982 h -0.51318 v 12.84982 h -1.288 v -12.84982 h -0.51319 v 12.84982 h -1.288 v -12.84982 h -0.51319 v 12.84982 h -1.288 v -12.84982 h -0.51319 v 12.84982 h -1.288002 v -12.84982 h -0.51318 v 12.84982 h -1.288 V 227.61492 H 97.26127 v 12.84982 h -1.288 v -12.84982 h -0.513191 v 12.84982 h -1.288 v -12.84982 h -0.513191 v 12.84982 h -1.287999 v -12.84982 h -0.513181 v 12.84982 h -1.288 V 227.61492 H 90.05652 v 12.84982 h -1.288002 v -12.84982 h -0.513189 v 12.84982 H 86.96733 v -12.84982 h -0.513191 v 12.84982 h -1.288 v -12.84982 h -0.513181 v 12.84982 h -1.287999 v -12.84982 h -0.513191 v 12.84982 h -1.288 V 227.61492 H 81.05058 v 12.84982 h -1.288 v -12.84982 h -0.513191 v 12.84982 h -1.288 v -12.84982 h -0.51318 v 12.84982 h -1.288 v -12.84982 h -0.513191 v 12.84982 h -1.288 V 227.61492 H 73.84583 v 12.84982 h -1.288002 v -12.84982 h -0.513189 v 12.84982 H 70.75664 v -12.84982 h -0.513181 v 12.84982 h -1.28801 v -12.84982 h -0.513181 v 12.84982 h -1.287999 v -12.84982 h -0.513191 v 12.84982 h -1.288 v -12.84982 h -0.513189 v 12.84982 h -1.288 v -12.84982 h -0.513191 v 12.84982 h -1.287999 v -12.84982 h -0.51318 v 12.84982 h -1.288001 m -20.32625,14.12775 v -3.20994 l 0.644,-0.644 h 50.17162 l 0.644001,0.644 v 0.644 h 5.152001 v 12.84981 h -5.152001 v 0.63394 l -0.644001,0.644 h -50.17162 l -0.644,-0.644 v -3.20994 l 0.644,-0.644 h 54.67962 v -6.41987 h -54.67962 l -0.644,-0.644 m 64.329562,10.91781 v -0.63394 h -5.152 v -12.84981 h 5.152 v -0.644 l 0.644,-0.644 h 50.17162 l 0.63394,0.644 v 3.20994 l -0.63394,0.644 h -54.67962 v 6.41987 h 54.67962 l 0.63394,0.644 v 3.20994 l -0.63394,0.644 h -50.17162 l -0.644,-0.644 m 0,-5.13188 v -3.85393 l 0.644,-0.644 h 50.17162 l 0.63394,0.644 v 3.85393 l -0.63394,0.644 h -50.17162 l -0.644,-0.644 m -64.329562,0 v -3.85393 l 0.644,-0.644 h 50.17162 l 0.644001,0.644 v 3.85393 l -0.644001,0.644 h -50.17162 l -0.644,-0.644"
       style="fill:#ff0000;stroke:#ff2929;stroke-width:0.0100625px;stroke-linecap:butt;stroke-linejoin:round;stroke-miterlimit:4;stroke-dasharray:none;stroke-opacity:1"
       inkscape:connector-curvature="0" />
    <path
       id="path4682"
       d="m 91.72689,255.88049 h 2.575999 v 5.14193 H 91.72689 Z"
       style="fill:#800000;stroke:#ff2929;stroke-width:0.0100625px;stroke-linecap:butt;stroke-linejoin:round;stroke-miterlimit:4;stroke-dasharray:none;stroke-opacity:1"
       inkscape:connector-curvature="0" />
    <path
       id="path4690"
       d="m 100.73283,255.88049 h 2.576 v 5.14193 h -2.576 z"
       style="fill:#800000;stroke:#ff2929;stroke-width:0.0100625px;stroke-linecap:butt;stroke-linejoin:round;stroke-miterlimit:4;stroke-dasharray:none;stroke-opacity:1"
       inkscape:connector-curvature="0" />
  </g>
</svg>
