<?xml version="1.0" encoding="UTF-8" standalone="no"?>
<!-- Created with Inkscape (http://www.inkscape.org/) -->

<svg
   xmlns:dc="http://purl.org/dc/elements/1.1/"
   xmlns:cc="http://creativecommons.org/ns#"
   xmlns:rdf="http://www.w3.org/1999/02/22-rdf-syntax-ns#"
   xmlns:svg="http://www.w3.org/2000/svg"
   xmlns="http://www.w3.org/2000/svg"
   xmlns:sodipodi="http://sodipodi.sourceforge.net/DTD/sodipodi-0.dtd"
   xmlns:inkscape="http://www.inkscape.org/namespaces/inkscape"
   width="328.26459mm"
   height="153.06459mm"
   viewBox="0 0 328.26459 153.06459"
   version="1.1"
   id="svg356"
   sodipodi:docname="uniaxial_BDRIE_accelerometer.svg"
   inkscape:version="0.92.4 (5da689c313, 2019-01-14)">
  <title
     id="title872">AES_015</title>
  <defs
     id="defs350">
    <marker
       style="overflow:visible"
       refY="0"
       refX="0"
       orient="auto"
       id="DistanceX">
      <path
         id="path360"
         style="stroke:#000000;stroke-width:0.5"
         d="M 3,-3 -3,3 M 0,-5 V 5"
         inkscape:connector-curvature="0" />
    </marker>
    <pattern
       y="0"
       x="0"
       width="8"
       patternUnits="userSpaceOnUse"
       id="Hatch"
       height="8">
      <path
         id="path363"
         stroke-width="0.25"
         stroke="#000000"
         linecap="square"
         d="M8 4 l-4,4" />
      <path
         id="path365"
         stroke-width="0.25"
         stroke="#000000"
         linecap="square"
         d="M6 2 l-4,4" />
      <path
         id="path367"
         stroke-width="0.25"
         stroke="#000000"
         linecap="square"
         d="M4 0 l-4,4" />
    </pattern>
    <symbol
       id="*Model_Space" />
    <symbol
       id="*Paper_Space" />
    <symbol
       id="*Paper_Space0" />
    <marker
       style="overflow:visible"
       refY="0"
       refX="0"
       orient="auto"
       id="DistanceX-1">
      <path
         id="path445"
         style="stroke:#000000;stroke-width:0.5"
         d="M 3,-3 -3,3 M 0,-5 V 5"
         inkscape:connector-curvature="0" />
    </marker>
    <pattern
       y="0"
       x="0"
       width="8"
       patternUnits="userSpaceOnUse"
       id="Hatch-3"
       height="8">
      <path
         id="path448"
         stroke-width="0.25"
         stroke="#000000"
         linecap="square"
         d="M8 4 l-4,4" />
      <path
         id="path450"
         stroke-width="0.25"
         stroke="#000000"
         linecap="square"
         d="M6 2 l-4,4" />
      <path
         id="path452"
         stroke-width="0.25"
         stroke="#000000"
         linecap="square"
         d="M4 0 l-4,4" />
    </pattern>
    <symbol
       id="*Model_Space-8" />
    <symbol
       id="*Paper_Space-1" />
    <symbol
       id="*Paper_Space0-9" />
  </defs>
  <sodipodi:namedview
     id="base"
     pagecolor="#ffffff"
     bordercolor="#666666"
     borderopacity="1.0"
     inkscape:pageopacity="0.0"
     inkscape:pageshadow="2"
     inkscape:zoom="0.7"
     inkscape:cx="39.23077"
     inkscape:cy="515.812"
     inkscape:document-units="mm"
     inkscape:current-layer="layer1"
     showgrid="false"
     fit-margin-top="0"
     fit-margin-left="0"
     fit-margin-right="0"
     fit-margin-bottom="0"
     inkscape:window-width="1920"
     inkscape:window-height="1017"
     inkscape:window-x="1912"
     inkscape:window-y="-8"
     inkscape:window-maximized="1" />
  <metadata
     id="metadata353">
    <rdf:RDF>
      <cc:Work
         rdf:about="">
        <dc:format>image/svg+xml</dc:format>
        <dc:type
           rdf:resource="http://purl.org/dc/dcmitype/StillImage" />
        <dc:title>AES_015</dc:title>
        <dc:date>2019</dc:date>
        <dc:rights>
          <cc:Agent>
            <dc:title>TU Chemnitz</dc:title>
          </cc:Agent>
        </dc:rights>
        <dc:publisher>
          <cc:Agent>
            <dc:title>vladimir.kolchuzhin@ieee.org</dc:title>
          </cc:Agent>
        </dc:publisher>
        <dc:description>uniaxial BDRIE accelerometer</dc:description>
        <cc:license
           rdf:resource="http://creativecommons.org/licenses/by-nc-sa/4.0/" />
      </cc:Work>
      <cc:License
         rdf:about="http://creativecommons.org/licenses/by-nc-sa/4.0/">
        <cc:permits
           rdf:resource="http://creativecommons.org/ns#Reproduction" />
        <cc:permits
           rdf:resource="http://creativecommons.org/ns#Distribution" />
        <cc:requires
           rdf:resource="http://creativecommons.org/ns#Notice" />
        <cc:requires
           rdf:resource="http://creativecommons.org/ns#Attribution" />
        <cc:prohibits
           rdf:resource="http://creativecommons.org/ns#CommercialUse" />
        <cc:permits
           rdf:resource="http://creativecommons.org/ns#DerivativeWorks" />
        <cc:requires
           rdf:resource="http://creativecommons.org/ns#ShareAlike" />
      </cc:License>
    </rdf:RDF>
  </metadata>
  <g
     inkscape:label="Ebene 1"
     inkscape:groupmode="layer"
     id="layer1"
     transform="translate(-124.5188,-356.24063)">
    <g
       inkscape:label="0"
       id="g460"
       transform="matrix(0.26458333,0,0,0.26458333,288.65109,135.77292)" />
    <g
       inkscape:label="rotor"
       id="g464"
       transform="matrix(0.26458333,0,0,0.26458333,288.65109,135.77292)">
      <path
         inkscape:connector-curvature="0"
         d="M -472.44094,964.53543 V 833.76378 h -75.59056 v 158.74016 h 88.44095 V 873.07087 l 0.7559,-0.75591 h 3.02363 l 0.7559,0.75591 v 127.74803 h 11.71654 v 46.1102 h 2.26771 v -41.5748 h 7.55906 v 41.5748 h 2.26772 v -41.5748 h 7.55905 v 41.5748 h 2.26772 v -41.5748 h 7.55905 v 41.5748 h 2.26772 v -41.5748 h 7.55905 v 41.5748 h 2.26772 v -41.5748 h 7.55906 v 41.5748 h 2.26771 v -41.5748 h 7.55906 v 41.5748 h 2.26771 v -41.5748 h 7.55906 v 41.5748 h 2.26772 v -41.5748 h 7.55905 v 41.5748 h 2.26772 v -41.5748 h 7.55905 v 41.5748 h 2.26772 v -41.5748 h 7.55905 v 41.5748 h 2.26772 v -41.5748 h 7.55906 v 41.5748 h 2.26771 v -41.5748 h 7.55906 v 41.5748 h 2.26771 v -41.5748 h 7.55906 v 41.5748 h 2.26772 v -41.5748 h 7.55905 v 41.5748 h 2.26772 v -41.5748 h 7.55905 v 41.5748 h 2.26772 v -41.5748 h 7.55905 v 41.5748 h 2.26772 v -41.5748 h 7.55906 v 41.5748 h 2.26771 v -41.5748 h 7.55906 v 41.5748 h 2.26771 v -41.5748 h 7.55906 v 41.5748 h 2.26772 v -41.5748 h 7.55905 v 41.5748 h 2.26772 v -41.5748 h 7.55905 v 41.5748 h 2.26772 v -41.5748 h 7.55905 v 41.5748 h 2.26772 v -41.5748 h 7.55906 v 41.5748 h 2.26771 v -41.5748 h 7.55906 v 41.5748 h 2.26771 v -41.5748 h 7.55906 v 41.5748 h 2.26772 v -41.5748 h 7.55905 v 41.5748 h 2.26772 v -41.5748 h 7.55905 v 41.5748 h 2.26772 v -41.5748 h 7.55905 v 41.5748 h 2.26772 v -41.5748 h 7.55906 v 41.5748 h 2.26771 v -41.5748 h 7.55906 v 41.5748 h 2.26771 v -41.5748 h 7.55906 v 41.5748 h 2.26772 v -41.5748 h 7.55905 v 41.5748 h 2.26772 v -41.5748 h 7.55905 v 41.5748 h 2.26772 v -41.5748 h 7.55905 v 41.5748 h 2.26772 v -41.5748 h 7.559055 v 41.5748 h 2.267717 v -41.5748 h 11.338582 v 234.3307 h -11.338582 v -41.5748 h -2.267717 v 41.5748 h -7.559055 v -41.5748 h -2.26772 v 41.5748 h -7.55905 v -41.5748 h -2.26772 v 41.5748 h -7.55905 v -41.5748 h -2.26772 v 41.5748 h -7.55905 v -41.5748 h -2.26772 v 41.5748 h -7.55906 v -41.5748 h -2.26771 v 41.5748 h -7.55906 v -41.5748 h -2.26771 v 41.5748 h -7.55906 v -41.5748 h -2.26772 v 41.5748 h -7.55905 v -41.5748 h -2.26772 v 41.5748 h -7.55905 v -41.5748 h -2.26772 v 41.5748 h -7.55905 v -41.5748 h -2.26772 v 41.5748 h -7.55906 v -41.5748 h -2.26771 v 41.5748 h -7.55906 v -41.5748 h -2.26771 v 41.5748 h -7.55906 v -41.5748 h -2.26772 v 41.5748 h -7.55905 v -41.5748 h -2.26772 v 41.5748 h -7.55905 v -41.5748 h -2.26772 v 41.5748 h -7.55905 v -41.5748 h -2.26772 v 41.5748 h -7.55906 v -41.5748 h -2.26771 v 41.5748 h -7.55906 v -41.5748 h -2.26771 v 41.5748 h -7.55906 v -41.5748 h -2.26772 v 41.5748 h -7.55905 v -41.5748 h -2.26772 v 41.5748 h -7.55905 v -41.5748 h -2.26772 v 41.5748 h -7.55905 v -41.5748 h -2.26772 v 41.5748 h -7.55906 v -41.5748 h -2.26771 v 41.5748 h -7.55906 v -41.5748 h -2.26771 v 41.5748 h -7.55906 v -41.5748 h -2.26772 v 41.5748 h -7.55905 v -41.5748 h -2.26772 v 41.5748 h -7.55905 v -41.5748 h -2.26772 v 41.5748 h -7.55905 v -41.5748 h -2.26772 v 41.5748 h -7.55906 v -41.5748 h -2.26771 v 41.5748 h -7.55906 v -41.5748 h -2.26771 v 41.5748 h -7.55906 v -41.5748 h -2.26772 v 41.5748 h -7.55905 v -41.5748 h -2.26772 v 41.5748 h -7.55905 v -41.5748 h -2.26772 v 41.5748 h -7.55905 v -41.5748 h -2.26772 v 41.5748 h -7.55906 v -41.5748 h -2.26771 v 46.1103 h -11.71654 v 127.748 l -0.7559,0.7559 h -3.02363 v 11.3386 h 3.02363 l 0.7559,0.7559 v 13.6063 l -0.7559,0.7559 h -3.02363 l -0.7559,-0.7559 v -13.6063 l 0.7559,-0.7559 v -11.3386 l -0.7559,-0.7559 v -119.4331 h -88.44095 v 158.7402 h 75.59056 v -130.7717 h 9.82677 l 0.7559,0.7559 v 129.2599 h 9.07087 v -129.2599 l 0.7559,-0.7559 h 8.69292 v 46.1103 h 2.26771 v -41.5748 h 7.55906 v 41.5748 h 2.26772 v -41.5748 h 7.55905 v 41.5748 h 2.26772 v -41.5748 h 7.55905 v 41.5748 h 2.26772 v -41.5748 h 7.55905 v 41.5748 h 2.26772 v -41.5748 h 7.55906 v 41.5748 h 2.26771 v -41.5748 h 7.55906 v 41.5748 h 2.26771 v -41.5748 h 7.55906 v 41.5748 h 2.26772 v -41.5748 h 7.55905 v 41.5748 h 2.26772 v -41.5748 h 7.55905 v 41.5748 h 2.26772 v -41.5748 h 7.55905 v 41.5748 h 2.26772 v -41.5748 h 7.55906 v 41.5748 h 2.26771 v -41.5748 h 7.55906 v 41.5748 h 2.26771 v -41.5748 h 7.55906 v 41.5748 h 2.26772 v -41.5748 h 7.55905 v 41.5748 h 2.26772 v -41.5748 h 7.55905 v 41.5748 h 2.26772 v -41.5748 h 7.55905 v 41.5748 h 2.26772 v -41.5748 h 7.55906 v 41.5748 h 2.26771 v -41.5748 h 7.55906 v 41.5748 h 2.26771 v -41.5748 h 7.55906 v 41.5748 h 2.26772 v -41.5748 h 7.55905 v 41.5748 h 2.26772 v -41.5748 h 7.55905 v 41.5748 h 2.26772 v -41.5748 h 7.55905 v 41.5748 h 2.26772 v -41.5748 h 7.55906 v 41.5748 h 2.26771 v -41.5748 h 7.55906 v 41.5748 h 2.26771 v -41.5748 h 7.55906 v 41.5748 h 2.26772 v -41.5748 h 7.55905 v 41.5748 h 2.26772 v -41.5748 h 7.55905 v 41.5748 h 2.26772 v -41.5748 h 7.55905 v 41.5748 h 2.26772 v -41.5748 h 7.55906 v 41.5748 h 2.26771 v -41.5748 h 7.55906 v 41.5748 h 2.26771 v -41.5748 h 7.55906 v 41.5748 h 2.26772 v -41.5748 h 7.55905 v 41.5748 h 2.26772 v -41.5748 h 7.55905 v 41.5748 h 2.26772 v -41.5748 h 7.55905 v 41.5748 h 2.26772 v -41.5748 h 7.559055 v 41.5748 h 2.267717 v -41.5748 h 7.559055 v 41.5748 h 2.267716 v -41.5748 h 7.559056 v 41.5748 h 2.267716 v -41.5748 h 7.559055 v 41.5748 h 2.267717 v -41.5748 h 7.559055 v 41.5748 h 2.267716 v -41.5748 h 7.559055 v 41.5748 H -48 v -41.5748 h 7.559055 v 41.5748 h 2.267717 v -41.5748 h 7.559055 v 41.5748 h 2.267716 v -41.5748 h 7.559055 v 41.5748 h 2.267717 v -41.5748 h 7.559055 v 41.5748 h 2.267717 v -41.5748 H 8.692913 v 41.5748 h 2.267717 v -41.5748 h 7.559055 v 41.5748 h 2.267717 v -41.5748 h 7.559055 v 41.5748 h 2.267716 v -41.5748 h 7.559055 v 41.5748 h 2.267717 v -41.5748 H 48 v 41.5748 h 2.267717 v -41.5748 h 7.559055 v 41.5748 h 2.267716 v -41.5748 h 7.559055 v 41.5748 h 2.267717 v -41.5748 h 7.559055 v 41.5748 h 2.267716 v -41.5748 h 7.559056 v 41.5748 h 2.267716 v -41.5748 h 7.559055 v 41.5748 h 2.267717 v -41.5748 h 7.559055 v 41.5748 h 2.26772 v -41.5748 h 7.55905 v 41.5748 h 2.26772 v -41.5748 h 7.55905 v 41.5748 h 2.26772 v -41.5748 h 7.55905 v 41.5748 h 2.26772 v -41.5748 h 7.55906 v 41.5748 h 2.26771 v -41.5748 h 7.55906 v 41.5748 h 2.26771 v -41.5748 h 7.55906 v 41.5748 h 2.26772 v -41.5748 h 7.55905 v 41.5748 h 2.26772 v -41.5748 h 7.55905 v 41.5748 h 2.26772 v -41.5748 h 7.55905 v 41.5748 h 2.26772 v -41.5748 h 7.55906 v 41.5748 h 2.26771 v -41.5748 h 7.55906 v 41.5748 h 2.26771 v -41.5748 h 7.55906 v 41.5748 h 2.26772 v -41.5748 h 7.55905 v 41.5748 h 2.26772 v -41.5748 h 7.55905 v 41.5748 h 2.26772 v -41.5748 h 7.55905 v 41.5748 h 2.26772 v -41.5748 h 7.55906 v 41.5748 h 2.26771 v -41.5748 h 7.55906 v 41.5748 h 2.26771 v -41.5748 h 7.55906 v 41.5748 h 2.26772 v -41.5748 h 7.55905 v 41.5748 h 2.26772 v -41.5748 h 7.55905 v 41.5748 h 2.26772 v -41.5748 h 7.55905 v 41.5748 h 2.26772 v -41.5748 h 7.55906 v 41.5748 h 2.26771 v -41.5748 h 7.55906 v 41.5748 h 2.26771 v -41.5748 h 7.55906 v 41.5748 h 2.26772 v -41.5748 h 7.55905 v 41.5748 h 2.26772 v -41.5748 h 7.55905 v 41.5748 h 2.26772 v -41.5748 h 7.55905 v 41.5748 h 2.26772 v -41.5748 h 7.55906 v 41.5748 h 2.26771 v -41.5748 h 7.55906 v 41.5748 h 2.26771 v -41.5748 h 7.55906 v 41.5748 h 2.26772 v -41.5748 h 7.55905 v 41.5748 h 2.26772 v -41.5748 h 7.55905 v 41.5748 h 2.26772 v -41.5748 h 7.55905 v 41.5748 h 2.26772 v -41.5748 h 7.55906 v 41.5748 h 2.26771 v -46.1103 h 8.69292 l 0.7559,0.7559 v 129.2599 h 9.07087 v -129.2599 l 0.7559,-0.7559 h 9.82677 v 130.7717 h 75.59056 v -158.7402 h -88.44095 v 119.4331 l -0.7559,0.7559 h -3.02363 v 11.3386 h 3.02363 l 0.7559,0.7559 v 13.6063 l -0.7559,0.7559 h -3.02363 l -0.7559,-0.7559 v -13.6063 l 0.7559,-0.7559 v -11.3386 l -0.7559,-0.7559 v -127.748 h -11.71654 v -46.1103 h -2.26771 v 41.5748 h -7.55906 v -41.5748 h -2.26772 v 41.5748 h -7.55905 v -41.5748 h -2.26772 v 41.5748 h -7.55905 v -41.5748 h -2.26772 v 41.5748 h -7.55905 v -41.5748 h -2.26772 v 41.5748 h -7.55906 v -41.5748 h -2.26771 v 41.5748 h -7.55906 v -41.5748 h -2.26771 v 41.5748 h -7.55906 v -41.5748 h -2.26772 v 41.5748 h -7.55905 v -41.5748 h -2.26772 v 41.5748 h -7.55905 v -41.5748 h -2.26772 v 41.5748 h -7.55905 v -41.5748 h -2.26772 v 41.5748 h -7.55906 v -41.5748 h -2.26771 v 41.5748 h -7.55906 v -41.5748 h -2.26771 v 41.5748 h -7.55906 v -41.5748 h -2.26772 v 41.5748 h -7.55905 v -41.5748 h -2.26772 v 41.5748 h -7.55905 v -41.5748 h -2.26772 v 41.5748 h -7.55905 v -41.5748 h -2.26772 v 41.5748 h -7.55906 v -41.5748 h -2.26771 v 41.5748 h -7.55906 v -41.5748 h -2.26771 v 41.5748 h -7.55906 v -41.5748 h -2.26772 v 41.5748 h -7.55905 v -41.5748 h -2.26772 v 41.5748 h -7.55905 v -41.5748 h -2.26772 v 41.5748 h -7.55905 v -41.5748 h -2.26772 v 41.5748 h -7.55906 v -41.5748 h -2.26771 v 41.5748 h -7.55906 v -41.5748 h -2.26771 v 41.5748 h -7.55906 v -41.5748 h -2.26772 v 41.5748 h -7.55905 v -41.5748 h -2.26772 v 41.5748 h -7.55905 v -41.5748 h -2.26772 v 41.5748 h -7.55905 v -41.5748 h -2.26772 v 41.5748 h -7.55906 v -41.5748 h -2.26771 v 41.5748 h -7.55906 v -41.5748 h -2.26771 v 41.5748 h -7.55906 v -41.5748 h -2.26772 v 41.5748 h -7.55905 v -41.5748 h -2.26772 v 41.5748 h -7.55905 v -41.5748 h -2.26772 v 41.5748 h -7.55905 v -41.5748 h -2.26772 v 41.5748 h -7.559055 v -41.5748 h -2.267717 v 41.5748 H 85.795276 v -234.3307 h 11.338582 v 41.5748 h 2.267717 v -41.5748 h 7.559055 v 41.5748 h 2.26772 v -41.5748 h 7.55905 v 41.5748 h 2.26772 v -41.5748 h 7.55905 v 41.5748 h 2.26772 v -41.5748 h 7.55905 v 41.5748 h 2.26772 v -41.5748 h 7.55906 v 41.5748 h 2.26771 v -41.5748 h 7.55906 v 41.5748 h 2.26771 v -41.5748 h 7.55906 v 41.5748 h 2.26772 v -41.5748 h 7.55905 v 41.5748 h 2.26772 v -41.5748 h 7.55905 v 41.5748 h 2.26772 v -41.5748 h 7.55905 v 41.5748 h 2.26772 v -41.5748 h 7.55906 v 41.5748 h 2.26771 v -41.5748 h 7.55906 v 41.5748 h 2.26771 v -41.5748 h 7.55906 v 41.5748 h 2.26772 v -41.5748 h 7.55905 v 41.5748 h 2.26772 v -41.5748 h 7.55905 v 41.5748 h 2.26772 v -41.5748 h 7.55905 v 41.5748 h 2.26772 v -41.5748 h 7.55906 v 41.5748 h 2.26771 v -41.5748 h 7.55906 v 41.5748 h 2.26771 v -41.5748 h 7.55906 v 41.5748 h 2.26772 v -41.5748 h 7.55905 v 41.5748 h 2.26772 v -41.5748 h 7.55905 v 41.5748 h 2.26772 v -41.5748 h 7.55905 v 41.5748 h 2.26772 v -41.5748 h 7.55906 v 41.5748 h 2.26771 v -41.5748 h 7.55906 v 41.5748 h 2.26771 v -41.5748 h 7.55906 v 41.5748 h 2.26772 v -41.5748 h 7.55905 v 41.5748 h 2.26772 v -41.5748 h 7.55905 v 41.5748 h 2.26772 v -41.5748 h 7.55905 v 41.5748 h 2.26772 v -41.5748 h 7.55906 v 41.5748 h 2.26771 v -41.5748 h 7.55906 v 41.5748 h 2.26771 v -41.5748 h 7.55906 v 41.5748 h 2.26772 v -41.5748 h 7.55905 v 41.5748 h 2.26772 v -41.5748 h 7.55905 v 41.5748 h 2.26772 v -41.5748 h 7.55905 v 41.5748 h 2.26772 v -41.5748 h 7.55906 v 41.5748 h 2.26771 v -46.1102 h 11.71654 V 873.07087 l 0.7559,-0.75591 h 3.02363 l 0.7559,0.75591 V 992.50394 H 548.0315 V 833.76378 h -75.59056 v 130.77165 h -9.82677 l -0.7559,-0.7559 V 834.51968 h -6.04725 v 11.33859 h 3.02363 l 0.7559,0.7559 v 13.6063 l -0.7559,0.75591 h -3.02363 l -0.7559,-0.75591 v -13.6063 l 0.7559,-0.7559 v -11.33859 h -3.02362 v 129.25985 l -0.7559,0.7559 h -8.69292 V 918.4252 h -2.26771 V 960 h -7.55906 v -41.5748 h -2.26772 V 960 h -7.55905 v -41.5748 h -2.26772 V 960 h -7.55905 v -41.5748 h -2.26772 V 960 h -7.55905 v -41.5748 h -2.26772 V 960 h -7.55906 v -41.5748 h -2.26771 V 960 h -7.55906 v -41.5748 h -2.26771 V 960 h -7.55906 v -41.5748 h -2.26772 V 960 h -7.55905 v -41.5748 h -2.26772 V 960 h -7.55905 v -41.5748 h -2.26772 V 960 h -7.55905 v -41.5748 h -2.26772 V 960 h -7.55906 v -41.5748 h -2.26771 V 960 h -7.55906 v -41.5748 h -2.26771 V 960 h -7.55906 v -41.5748 h -2.26772 V 960 h -7.55905 v -41.5748 h -2.26772 V 960 h -7.55905 v -41.5748 h -2.26772 V 960 h -7.55905 v -41.5748 h -2.26772 V 960 h -7.55906 v -41.5748 h -2.26771 V 960 h -7.55906 v -41.5748 h -2.26771 V 960 h -7.55906 V 918.4252 H 254.3622 V 960 h -7.55905 v -41.5748 h -2.26772 V 960 h -7.55905 v -41.5748 h -2.26772 V 960 h -7.55905 v -41.5748 h -2.26772 V 960 h -7.55906 v -41.5748 h -2.26771 V 960 h -7.55906 v -41.5748 h -2.26771 V 960 h -7.55906 v -41.5748 h -2.26772 V 960 h -7.55905 V 918.4252 H 185.5748 V 960 h -7.55905 v -41.5748 h -2.26772 V 960 h -7.55905 v -41.5748 h -2.26772 V 960 h -7.55906 v -41.5748 h -2.26771 V 960 h -7.55906 v -41.5748 h -2.26771 V 960 h -7.55906 v -41.5748 h -2.26772 V 960 h -7.55905 v -41.5748 h -2.26772 V 960 h -7.55905 V 918.4252 H 116.7874 V 960 h -7.55905 v -41.5748 h -2.26772 V 960 H 99.401575 V 918.4252 H 97.133858 V 960 H 89.574803 V 918.4252 H 87.307087 V 960 H 79.748031 V 918.4252 H 77.480315 V 960 H 69.92126 V 918.4252 H 67.653543 V 960 H 60.094488 V 918.4252 H 57.826772 V 960 H 50.267717 V 918.4252 H 48 V 960 H 40.440945 V 918.4252 H 38.173228 V 960 H 30.614173 V 918.4252 H 28.346457 V 960 H 20.787402 V 918.4252 H 18.519685 V 960 H 10.96063 V 918.4252 H 8.692913 V 960 H -8.692913 V 918.4252 H -10.96063 V 960 h -7.559055 v -41.5748 h -2.267717 V 960 h -7.559055 v -41.5748 h -2.267716 V 960 h -7.559055 v -41.5748 h -2.267717 V 960 H -48 v -41.5748 h -2.267717 V 960 h -7.559055 v -41.5748 h -2.267716 V 960 h -7.559055 V 918.4252 H -69.92126 V 960 h -7.559055 v -41.5748 h -2.267716 V 960 h -7.559056 v -41.5748 h -2.267716 V 960 h -7.559055 v -41.5748 h -2.267717 V 960 h -7.559055 v -41.5748 h -2.26772 V 960 h -7.55905 v -41.5748 h -2.26772 V 960 h -7.55905 v -41.5748 h -2.26772 V 960 h -7.55905 v -41.5748 h -2.26772 V 960 h -7.55906 v -41.5748 h -2.26771 V 960 h -7.55906 v -41.5748 h -2.26771 V 960 h -7.55906 v -41.5748 h -2.26772 V 960 h -7.55905 v -41.5748 h -2.26772 V 960 h -7.55905 v -41.5748 h -2.26772 V 960 h -7.55905 v -41.5748 h -2.26772 V 960 h -7.55906 v -41.5748 h -2.26771 V 960 h -7.55906 v -41.5748 h -2.26771 V 960 h -7.55906 v -41.5748 h -2.26772 V 960 h -7.55905 v -41.5748 h -2.26772 V 960 h -7.55905 v -41.5748 h -2.26772 V 960 h -7.55905 v -41.5748 h -2.26772 V 960 h -7.55906 v -41.5748 h -2.26771 V 960 h -7.55906 v -41.5748 h -2.26771 V 960 h -7.55906 v -41.5748 h -2.26772 V 960 h -7.55905 v -41.5748 h -2.26772 V 960 h -7.55905 v -41.5748 h -2.26772 V 960 h -7.55905 v -41.5748 h -2.26772 V 960 h -7.55906 v -41.5748 h -2.26771 V 960 h -7.55906 v -41.5748 h -2.26771 V 960 h -7.55906 v -41.5748 h -2.26772 V 960 h -7.55905 v -41.5748 h -2.26772 V 960 h -7.55905 v -41.5748 h -2.26772 V 960 h -7.55905 v -41.5748 h -2.26772 V 960 h -7.55906 v -41.5748 h -2.26771 V 960 h -7.55906 v -41.5748 h -2.26771 V 960 h -7.55906 v -41.5748 h -2.26772 V 960 h -7.55905 v -41.5748 h -2.26772 V 960 h -7.55905 v -41.5748 h -2.26772 V 960 h -7.55905 v -41.5748 h -2.26772 V 960 h -7.55906 v -41.5748 h -2.26771 v 46.11023 h -8.69292 l -0.7559,-0.7559 V 834.51968 h -6.04725 v 11.33859 h 3.02363 l 0.7559,0.7559 v 13.6063 l -0.7559,0.75591 h -3.02363 l -0.7559,-0.75591 v -13.6063 l 0.7559,-0.7559 v -11.33859 h -3.02362 v 129.25985 l -0.7559,0.7559 z"
         style="fill:#ff5555;stroke:#000000;stroke-width:0;stroke-miterlimit:4;stroke-dasharray:none"
         id="path462" />
    </g>
    <g
       style="fill:#0000ff;stroke-width:0.37795275;stroke-miterlimit:4;stroke-dasharray:none"
       inkscape:label="stator "
       id="stator"
       transform="matrix(0.26458333,0,0,0.26458333,288.65109,135.77292)">
      <path
         inkscape:connector-curvature="0"
         d="m -619.84252,1244.9764 h 158.74016 v -8.2394 h 7.55905 v -42.4063 h 13.98426 v 41.5748 h 2.26771 v -41.5748 h 7.55906 v 41.5748 h 2.26771 v -41.5748 h 7.55906 v 41.5748 h 2.26772 v -41.5748 h 7.55905 v 41.5748 h 2.26772 v -41.5748 h 7.55905 v 41.5748 h 2.26772 v -41.5748 h 7.55905 v 41.5748 h 2.26772 v -41.5748 h 7.55905 v 41.5748 h 2.26772 v -41.5748 h 7.55906 v 41.5748 h 2.26771 v -41.5748 h 7.55906 v 41.5748 h 2.26772 v -41.5748 h 7.55905 v 41.5748 h 2.26772 v -41.5748 h 7.55905 v 41.5748 h 2.26772 v -41.5748 h 7.55905 v 41.5748 h 2.26772 v -41.5748 h 7.55906 v 41.5748 h 2.26771 v -41.5748 h 7.55906 v 41.5748 h 2.26771 v -41.5748 h 7.55906 v 41.5748 h 2.26771 v -41.5748 h 7.55906 v 41.5748 h 2.26772 v -41.5748 h 7.55905 v 41.5748 h 2.26772 v -41.5748 h 7.55905 v 41.5748 h 2.26772 v -41.5748 h 7.55906 v 41.5748 h 2.26771 v -41.5748 h 7.55906 v 41.5748 h 2.26771 v -41.5748 h 7.55906 v 41.5748 h 2.26771 v -41.5748 h 7.55906 v 41.5748 h 2.26772 v -41.5748 h 7.55905 v 41.5748 h 2.26772 v -41.5748 h 7.55905 v 41.5748 h 2.26772 v -41.5748 h 7.55906 v 41.5748 h 2.26771 v -41.5748 h 7.55906 v 41.5748 h 2.26771 v -41.5748 h 7.55906 v 41.5748 h 2.26771 v -41.5748 h 7.55906 v 41.5748 h 2.26772 v -41.5748 h 7.55905 v 41.5748 h 2.26772 v -41.5748 h 7.55905 v 41.5748 h 2.26772 v -41.5748 h 7.55905 v 41.5748 h 2.26772 v -41.5748 h 7.55906 v 41.5748 h 2.26771 v -41.5748 h 7.55906 v 41.5748 h 2.26771 v -41.5748 h 7.55906 v 41.5748 h 2.26772 v -41.5748 h 7.55905 v 41.5748 h 2.26772 v -41.5748 h 7.559053 v 41.5748 h 2.267716 v -66.5197 h -29.480319 v 2.2677 h 27.212603 v 8.315 h -27.212603 v 1.5118 h 27.212603 v 8.315 h -27.212603 v -8.315 -1.5118 -8.315 -2.2677 h -29.48031 v 3.0236 h 27.2126 v 7.5591 h -27.2126 v 1.5118 h 27.2126 v 7.5591 h -27.2126 v -7.5591 -1.5118 -7.5591 -3.0236 h -29.48032 v 3.7796 h 27.2126 v 6.8031 h -27.2126 v 1.5118 h 27.2126 v 6.8032 h -27.2126 v -6.8032 -1.5118 -6.8031 -3.7796 h -29.48031 v 4.5355 h 27.2126 v 6.0472 h -27.2126 v 1.5118 h 27.2126 v 6.0473 h -27.2126 v -6.0473 -1.5118 -6.0472 -4.5355 h -39.30709 v 6.0473 h 37.03937 v 4.5354 h -37.03937 v 1.5118 h 37.03937 v 4.5354 h -37.03937 v -4.5354 -1.5118 -4.5354 -6.0473 h -39.30708 v 7.5591 h 37.03937 v 7.559 h -37.03937 v -7.559 -7.5591 h -329.95276 z"
         style="fill:#0000ff;stroke:#000000;stroke-width:0;stroke-miterlimit:4;stroke-dasharray:none"
         id="path466" />
      <path
         inkscape:connector-curvature="0"
         d="m -461.10236,1008.3024 v -8.2394 h -158.74016 v 75.5905 h 526.488189 v -66.5196 h -2.267716 v 41.5748 h -7.559053 v -41.5748 h -2.26772 v 41.5748 h -7.55905 v -41.5748 h -2.26772 v 41.5748 h -7.55906 v 4.5354 h 27.212603 v 8.315 h -27.212603 v 1.5118 h 27.212603 v 8.3149 h -27.212603 v -8.3149 -1.5118 -8.315 -4.5354 -41.5748 h -2.26771 v 41.5748 h -7.55906 v -41.5748 h -2.26771 v 41.5748 h -7.55906 v -41.5748 h -2.26772 v 41.5748 h -7.55905 V 1056 h 27.2126 v 7.5591 h -27.2126 v 1.5118 h 27.2126 v 7.559 h -27.2126 v -7.559 -1.5118 -7.5591 -5.2913 -41.5748 h -2.26772 v 41.5748 h -7.55905 v -41.5748 h -2.26772 v 41.5748 h -7.55905 v -41.5748 h -2.26772 v 41.5748 h -7.55906 v 6.0472 h 27.2126 v 6.8032 h -27.2126 v 1.5118 h 27.2126 v 6.8031 h -27.2126 v -6.8031 -1.5118 -6.8032 -6.0472 -41.5748 h -2.26771 v 41.5748 h -7.55906 v -41.5748 h -2.26771 v 41.5748 h -7.55906 v -41.5748 h -2.26771 v 41.5748 h -7.55906 v 6.8031 h 27.2126 v 6.0473 h -27.2126 v 1.5118 h 27.2126 v 6.0472 h -27.2126 v -6.0472 -1.5118 -6.0473 -6.8031 -41.5748 h -2.26772 v 41.5748 h -7.55905 v -41.5748 h -2.26772 v 41.5748 h -7.55905 v -41.5748 h -2.26772 v 41.5748 h -7.55906 v -41.5748 h -2.26771 v 41.5748 h -7.55906 v 8.3149 h 37.03937 v 4.5355 h -37.03937 v 1.5118 h 37.03937 v 4.5354 h -37.03937 v -4.5354 -1.5118 -4.5355 -8.3149 -41.5748 h -2.26771 v 41.5748 h -7.55906 v -41.5748 h -2.26771 v 41.5748 h -7.55906 v -41.5748 h -2.26772 v 41.5748 h -7.55905 v -41.5748 h -2.26772 v 41.5748 h -7.55905 v 9.8267 h 37.03937 v 7.5591 h -37.03937 v -7.5591 -9.8267 -41.5748 h -2.26772 v 41.5748 h -7.55906 v -41.5748 h -2.26771 v 41.5748 h -7.55906 v -41.5748 h -2.26771 v 41.5748 h -7.55906 v -41.5748 h -2.26771 v 41.5748 h -7.55906 v -41.5748 h -2.26772 v 41.5748 h -7.55905 v -41.5748 h -2.26772 v 41.5748 h -7.55905 v -41.5748 h -2.26772 v 41.5748 h -7.55905 v -41.5748 h -2.26772 v 41.5748 h -7.55906 v -41.5748 h -2.26771 v 41.5748 h -7.55906 v -41.5748 h -2.26772 v 41.5748 h -7.55905 v -41.5748 h -2.26772 v 41.5748 h -7.55905 v -41.5748 h -2.26772 v 41.5748 h -7.55905 v -41.5748 h -2.26772 v 41.5748 h -7.55905 v -41.5748 h -2.26772 v 41.5748 h -7.55906 v -41.5748 h -2.26771 v 41.5748 h -7.55906 v -41.5748 h -2.26771 v 41.5748 h -13.98426 v -42.4063 z"
         style="fill:#0000ff;stroke:#000000;stroke-width:0;stroke-miterlimit:4;stroke-dasharray:none"
         id="path468" />
      <path
         inkscape:connector-curvature="0"
         d="m -437.29134,1330.3937 v -41.5748 h -2.26771 v 41.5748 h -2.64567 v 75.5906 h 417.637791 v -45.3544 h 9.826772 v -25.7008 h 9.826771 v -46.1102 h -2.267716 v 41.5748 h -7.559055 v -41.5748 h -2.267717 v 41.5748 h -7.559055 v -41.5748 h -2.267717 v 41.5748 h -7.559055 v -41.5748 h -2.267716 v 41.5748 h -7.559055 v -41.5748 h -2.267717 v 41.5748 h -7.559055 v -41.5748 h -2.267717 v 41.5748 h -7.559055 v -41.5748 h -2.267716 v 41.5748 h -7.559055 v -41.5748 h -2.267717 v 41.5748 h -7.559055 v -41.5748 h -2.267717 v 41.5748 h -7.559055 v -41.5748 h -2.267716 v 41.5748 h -7.559053 v -41.5748 h -2.26772 v 41.5748 h -7.55905 v -41.5748 h -2.26772 v 41.5748 h -7.55906 v -41.5748 h -2.26771 v 41.5748 h -7.55906 v -41.5748 h -2.26771 v 41.5748 h -7.55906 v -41.5748 h -2.26772 v 41.5748 h -7.55905 v -41.5748 h -2.26772 v 41.5748 h -7.55905 v -41.5748 h -2.26772 v 41.5748 h -7.55905 v -41.5748 h -2.26772 v 41.5748 h -7.55906 v -41.5748 h -2.26771 v 41.5748 h -7.55906 v -41.5748 h -2.26771 v 41.5748 h -7.55906 v -41.5748 h -2.26771 v 41.5748 h -7.55906 v -41.5748 h -2.26772 v 41.5748 h -7.55905 v -41.5748 h -2.26772 v 41.5748 h -7.55905 v -41.5748 h -2.26772 v 41.5748 h -7.55906 v -41.5748 h -2.26771 v 41.5748 h -7.55906 v -41.5748 h -2.26771 v 41.5748 h -7.55906 v -41.5748 h -2.26771 v 41.5748 h -7.55906 v -41.5748 h -2.26772 v 41.5748 h -7.55905 v -41.5748 h -2.26772 v 41.5748 h -7.55905 v -41.5748 h -2.26772 v 41.5748 h -7.55906 v -41.5748 h -2.26771 v 41.5748 h -7.55906 v -41.5748 h -2.26771 v 41.5748 h -7.55906 v -41.5748 h -2.26771 v 41.5748 h -7.55906 v -41.5748 h -2.26772 v 41.5748 h -7.55905 v -41.5748 h -2.26772 v 41.5748 h -7.55905 v -41.5748 h -2.26772 v 41.5748 h -7.55905 v -41.5748 h -2.26772 v 41.5748 h -7.55906 v -41.5748 h -2.26771 v 41.5748 h -7.55906 v -41.5748 h -2.26772 v 41.5748 h -7.55905 v -41.5748 h -2.26772 v 41.5748 h -7.55905 v -41.5748 h -2.26772 v 41.5748 h -7.55905 v -41.5748 h -2.26772 v 41.5748 h -7.55905 v -41.5748 h -2.26772 v 41.5748 h -7.55906 v -41.5748 h -2.26771 v 41.5748 z"
         style="fill:#0000ff;stroke:#000000;stroke-width:0;stroke-miterlimit:4;stroke-dasharray:none"
         id="path470" />
      <path
         inkscape:connector-curvature="0"
         d="m -442.20472,914.64567 h 2.64567 v 41.5748 h 2.26771 v -41.5748 h 7.55906 v 41.5748 h 2.26771 v -41.5748 h 7.55906 v 41.5748 h 2.26772 v -41.5748 h 7.55905 v 41.5748 h 2.26772 v -41.5748 h 7.55905 v 41.5748 h 2.26772 v -41.5748 h 7.55905 v 41.5748 h 2.26772 v -41.5748 h 7.55905 v 41.5748 h 2.26772 v -41.5748 h 7.55906 v 41.5748 h 2.26771 v -41.5748 h 7.55906 v 41.5748 h 2.26772 v -41.5748 h 7.55905 v 41.5748 h 2.26772 v -41.5748 h 7.55905 v 41.5748 h 2.26772 v -41.5748 h 7.55905 v 41.5748 h 2.26772 v -41.5748 h 7.55906 v 41.5748 h 2.26771 v -41.5748 h 7.55906 v 41.5748 h 2.26771 v -41.5748 h 7.55906 v 41.5748 h 2.26771 v -41.5748 h 7.55906 v 41.5748 h 2.26772 v -41.5748 h 7.55905 v 41.5748 h 2.26772 v -41.5748 h 7.55905 v 41.5748 h 2.26772 v -41.5748 h 7.55906 v 41.5748 h 2.26771 v -41.5748 h 7.55906 v 41.5748 h 2.26771 v -41.5748 h 7.55906 v 41.5748 h 2.26771 v -41.5748 h 7.55906 v 41.5748 h 2.26772 v -41.5748 h 7.55905 v 41.5748 h 2.26772 v -41.5748 h 7.55905 v 41.5748 h 2.26772 v -41.5748 h 7.55906 v 41.5748 h 2.26771 v -41.5748 h 7.55906 v 41.5748 h 2.26771 v -41.5748 h 7.55906 v 41.5748 h 2.26771 v -41.5748 h 7.55906 v 41.5748 h 2.26772 v -41.5748 h 7.55905 v 41.5748 h 2.26772 v -41.5748 h 7.55905 v 41.5748 h 2.26772 v -41.5748 h 7.55905 v 41.5748 h 2.26772 v -41.5748 h 7.55906 v 41.5748 h 2.26771 v -41.5748 h 7.55906 v 41.5748 h 2.26771 v -41.5748 h 7.55906 v 41.5748 h 2.26772 v -41.5748 h 7.55905 v 41.5748 h 2.26772 v -41.5748 h 7.559053 v 41.5748 h 2.267716 v -41.5748 h 7.559055 v 41.5748 h 2.267717 v -41.5748 h 7.559055 v 41.5748 h 2.267717 v -41.5748 h 7.559055 v 41.5748 h 2.267716 v -41.5748 h 7.559055 v 41.5748 h 2.267717 v -41.5748 h 7.559055 v 41.5748 h 2.267717 v -41.5748 h 7.559055 v 41.5748 h 2.267716 v -41.5748 h 7.559055 v 41.5748 h 2.267717 v -41.5748 h 7.559055 v 41.5748 h 2.267717 v -41.5748 h 7.559055 v 41.5748 h 2.267716 v -46.11023 h -9.826771 v -25.70079 h -9.826772 V 839.05512 H -442.20472 Z"
         style="fill:#0000ff;stroke:#000000;stroke-width:0;stroke-miterlimit:4;stroke-dasharray:none"
         id="path472" />
      <path
         inkscape:connector-curvature="0"
         d="m 7.181102,1330.3937 v -41.5748 H 4.913386 v 46.1102 h 9.826771 v 25.7008 h 9.826772 v 45.3544 H 442.20472 v -75.5906 h -2.64567 v -41.5748 h -2.26771 v 41.5748 h -7.55906 v -41.5748 h -2.26771 v 41.5748 h -7.55906 v -41.5748 h -2.26772 v 41.5748 h -7.55905 v -41.5748 h -2.26772 v 41.5748 h -7.55905 v -41.5748 h -2.26772 v 41.5748 h -7.55905 v -41.5748 h -2.26772 v 41.5748 h -7.55905 v -41.5748 h -2.26772 v 41.5748 h -7.55906 v -41.5748 h -2.26771 v 41.5748 h -7.55906 v -41.5748 h -2.26772 v 41.5748 h -7.55905 v -41.5748 h -2.26772 v 41.5748 h -7.55905 v -41.5748 h -2.26772 v 41.5748 h -7.55905 v -41.5748 h -2.26772 v 41.5748 h -7.55906 v -41.5748 h -2.26771 v 41.5748 h -7.55906 v -41.5748 h -2.26771 v 41.5748 h -7.55906 v -41.5748 h -2.26771 v 41.5748 h -7.55906 v -41.5748 h -2.26772 v 41.5748 h -7.55905 v -41.5748 h -2.26772 v 41.5748 h -7.55905 v -41.5748 h -2.26772 v 41.5748 h -7.55906 v -41.5748 h -2.26771 v 41.5748 h -7.55906 v -41.5748 h -2.26771 v 41.5748 h -7.55906 v -41.5748 h -2.26771 v 41.5748 h -7.55906 v -41.5748 h -2.26772 v 41.5748 h -7.55905 v -41.5748 h -2.26772 v 41.5748 h -7.55905 v -41.5748 h -2.26772 v 41.5748 h -7.55906 v -41.5748 h -2.26771 v 41.5748 h -7.55906 v -41.5748 h -2.26771 v 41.5748 h -7.55906 v -41.5748 h -2.26771 v 41.5748 h -7.55906 v -41.5748 h -2.26772 v 41.5748 h -7.55905 v -41.5748 h -2.26772 v 41.5748 h -7.55905 v -41.5748 h -2.26772 v 41.5748 h -7.55905 v -41.5748 h -2.26772 v 41.5748 h -7.55906 v -41.5748 h -2.26771 v 41.5748 h -7.55906 v -41.5748 h -2.26771 v 41.5748 h -7.55906 v -41.5748 h -2.26772 v 41.5748 h -7.55905 v -41.5748 h -2.26772 v 41.5748 h -7.559053 v -41.5748 h -2.267716 v 41.5748 h -7.559055 v -41.5748 h -2.267717 v 41.5748 h -7.559055 v -41.5748 h -2.267717 v 41.5748 h -7.559055 v -41.5748 h -2.267716 v 41.5748 h -7.559055 v -41.5748 h -2.267717 v 41.5748 h -7.559055 v -41.5748 h -2.267717 v 41.5748 h -7.559055 v -41.5748 h -2.267716 v 41.5748 h -7.559055 v -41.5748 h -2.267717 v 41.5748 h -7.559055 v -41.5748 h -2.267717 v 41.5748 z"
         style="fill:#0000ff;stroke:#000000;stroke-width:0;stroke-miterlimit:4;stroke-dasharray:none"
         id="path474" />
      <path
         inkscape:connector-curvature="0"
         d="m 4.913386,956.22047 h 2.267716 v -41.5748 h 7.559055 v 41.5748 h 2.267717 v -41.5748 h 7.559055 v 41.5748 h 2.267717 v -41.5748 h 7.559055 v 41.5748 h 2.267716 v -41.5748 h 7.559055 v 41.5748 h 2.267717 v -41.5748 h 7.559055 v 41.5748 h 2.267717 v -41.5748 h 7.559055 v 41.5748 h 2.267716 v -41.5748 h 7.559055 v 41.5748 h 2.267717 v -41.5748 h 7.559055 v 41.5748 h 2.267717 v -41.5748 h 7.559055 v 41.5748 h 2.267716 v -41.5748 h 7.559053 v 41.5748 h 2.26772 v -41.5748 h 7.55905 v 41.5748 h 2.26772 v -41.5748 h 7.55906 v 41.5748 h 2.26771 v -41.5748 h 7.55906 v 41.5748 h 2.26771 v -41.5748 h 7.55906 v 41.5748 h 2.26772 v -41.5748 h 7.55905 v 41.5748 h 2.26772 v -41.5748 h 7.55905 v 41.5748 h 2.26772 v -41.5748 h 7.55905 v 41.5748 h 2.26772 v -41.5748 h 7.55906 v 41.5748 h 2.26771 v -41.5748 h 7.55906 v 41.5748 h 2.26771 v -41.5748 h 7.55906 v 41.5748 h 2.26771 v -41.5748 h 7.55906 v 41.5748 h 2.26772 v -41.5748 h 7.55905 v 41.5748 h 2.26772 v -41.5748 h 7.55905 v 41.5748 h 2.26772 v -41.5748 h 7.55906 v 41.5748 h 2.26771 v -41.5748 h 7.55906 v 41.5748 h 2.26771 v -41.5748 h 7.55906 v 41.5748 h 2.26771 v -41.5748 h 7.55906 v 41.5748 h 2.26772 v -41.5748 h 7.55905 v 41.5748 h 2.26772 v -41.5748 h 7.55905 v 41.5748 h 2.26772 v -41.5748 h 7.55906 v 41.5748 h 2.26771 v -41.5748 h 7.55906 v 41.5748 h 2.26771 v -41.5748 h 7.55906 v 41.5748 h 2.26771 v -41.5748 h 7.55906 v 41.5748 h 2.26772 v -41.5748 h 7.55905 v 41.5748 h 2.26772 v -41.5748 h 7.55905 v 41.5748 h 2.26772 v -41.5748 h 7.55905 v 41.5748 h 2.26772 v -41.5748 h 7.55906 v 41.5748 h 2.26771 v -41.5748 h 7.55906 v 41.5748 h 2.26772 v -41.5748 h 7.55905 v 41.5748 h 2.26772 v -41.5748 h 7.55905 v 41.5748 h 2.26772 v -41.5748 h 7.55905 v 41.5748 h 2.26772 v -41.5748 h 7.55905 v 41.5748 h 2.26772 v -41.5748 h 7.55906 v 41.5748 h 2.26771 v -41.5748 h 7.55906 v 41.5748 h 2.26771 v -41.5748 h 2.64567 V 839.05512 H 24.566929 v 45.35433 h -9.826772 v 25.70079 H 4.913386 Z"
         style="fill:#0000ff;stroke:#000000;stroke-width:0;stroke-miterlimit:4;stroke-dasharray:none"
         id="path476" />
      <path
         inkscape:connector-curvature="0"
         d="m 93.354331,1235.9055 h 2.267716 v -41.5748 h 7.559053 v 41.5748 h 2.26772 v -41.5748 h 7.55905 v 41.5748 h 2.26772 v -41.5748 h 7.55906 v 41.5748 h 2.26771 v -41.5748 h 7.55906 v 41.5748 h 2.26771 v -41.5748 h 7.55906 v 41.5748 h 2.26772 v -41.5748 h 7.55905 v 41.5748 h 2.26772 v -41.5748 h 7.55905 v 41.5748 h 2.26772 v -41.5748 h 7.55905 v 41.5748 h 2.26772 v -41.5748 h 7.55906 v 41.5748 h 2.26771 v -41.5748 h 7.55906 v 41.5748 h 2.26771 v -41.5748 h 7.55906 v 41.5748 h 2.26771 v -41.5748 h 7.55906 v 41.5748 h 2.26772 v -41.5748 h 7.55905 v 41.5748 h 2.26772 v -41.5748 h 7.55905 v 41.5748 h 2.26772 v -41.5748 h 7.55906 v 41.5748 h 2.26771 v -41.5748 h 7.55906 v 41.5748 h 2.26771 v -41.5748 h 7.55906 v 41.5748 h 2.26771 v -41.5748 h 7.55906 v 41.5748 h 2.26772 v -41.5748 h 7.55905 v 41.5748 h 2.26772 v -41.5748 h 7.55905 v 41.5748 h 2.26772 v -41.5748 h 7.55906 v 41.5748 h 2.26771 v -41.5748 h 7.55906 v 41.5748 h 2.26771 v -41.5748 h 7.55906 v 41.5748 h 2.26771 v -41.5748 h 7.55906 v 41.5748 h 2.26772 v -41.5748 h 7.55905 v 41.5748 h 2.26772 v -41.5748 h 7.55905 v 41.5748 h 2.26772 v -41.5748 h 7.55905 v 41.5748 h 2.26772 v -41.5748 h 7.55906 v 41.5748 h 2.26771 v -41.5748 h 7.55906 v 41.5748 h 2.26772 v -41.5748 h 7.55905 v 41.5748 h 2.26772 v -41.5748 h 7.55905 v 41.5748 h 2.26772 v -41.5748 h 7.55905 v 41.5748 h 2.26772 v -41.5748 h 7.55905 v 41.5748 h 2.26772 v -41.5748 h 7.55906 v 41.5748 h 2.26771 v -41.5748 h 7.55906 v 41.5748 h 2.26771 v -41.5748 h 13.98426 v 42.4063 h 7.55905 v 8.2394 h 158.74016 v -75.5906 H 252.85039 v 7.5591 h 37.03937 v 7.559 h -37.03937 v -7.559 -7.5591 h -39.30708 v 6.0473 h 37.03937 v 4.5354 h -37.03937 v 1.5118 h 37.03937 v 4.5354 h -37.03937 v -4.5354 -1.5118 -4.5354 -6.0473 h -29.48032 v 4.5355 h 27.2126 v 6.0472 h -27.2126 v 1.5118 h 27.2126 v 6.0473 h -27.2126 v -6.0473 -1.5118 -6.0472 -4.5355 h -29.48031 v 3.7796 h 27.2126 v 6.8031 h -27.2126 v 1.5118 h 27.2126 v 6.8032 h -27.2126 v -6.8032 -1.5118 -6.8031 -3.7796 h -29.48032 v 3.0236 h 27.2126 v 7.5591 h -27.2126 v 1.5118 h 27.2126 v 7.5591 h -27.2126 v -7.5591 -1.5118 -7.5591 -3.0236 H 95.622047 v 2.2677 h 27.212603 v 8.315 H 95.622047 v 1.5118 h 27.212603 v 8.315 H 95.622047 v -8.315 -1.5118 -8.315 -2.2677 h -2.267716 z"
         style="fill:#0000ff;stroke:#000000;stroke-width:0;stroke-miterlimit:4;stroke-dasharray:none"
         id="path478" />
      <path
         inkscape:connector-curvature="0"
         d="m 95.622047,1050.7087 v -41.5748 h -2.267716 v 66.5196 H 619.84252 V 1000.063 H 461.10236 v 8.2394 h -7.55905 v 42.4063 h -13.98426 v -41.5748 h -2.26771 v 41.5748 h -7.55906 v -41.5748 h -2.26771 v 41.5748 h -7.55906 v -41.5748 h -2.26772 v 41.5748 h -7.55905 v -41.5748 h -2.26772 v 41.5748 h -7.55905 v -41.5748 h -2.26772 v 41.5748 h -7.55905 v -41.5748 h -2.26772 v 41.5748 h -7.55905 v -41.5748 h -2.26772 v 41.5748 h -7.55906 v -41.5748 h -2.26771 v 41.5748 h -7.55906 v -41.5748 h -2.26772 v 41.5748 h -7.55905 v -41.5748 h -2.26772 v 41.5748 h -7.55905 v -41.5748 h -2.26772 v 41.5748 h -7.55905 v -41.5748 h -2.26772 v 41.5748 h -7.55906 v -41.5748 h -2.26771 v 41.5748 h -7.55906 v -41.5748 h -2.26771 v 41.5748 h -7.55906 v -41.5748 h -2.26771 v 41.5748 h -7.55906 v -41.5748 h -2.26772 v 41.5748 h -7.55905 v -41.5748 h -2.26772 v 41.5748 h -7.55905 v -41.5748 h -2.26772 v 41.5748 h -7.55906 v -41.5748 h -2.26771 v 41.5748 h -7.55906 v 9.8267 h 37.03937 v 7.5591 h -37.03937 v -7.5591 -9.8267 -41.5748 h -2.26771 v 41.5748 h -7.55906 v -41.5748 h -2.26771 v 41.5748 h -7.55906 v -41.5748 h -2.26772 v 41.5748 h -7.55905 v -41.5748 h -2.26772 v 41.5748 h -7.55905 v 8.3149 h 37.03937 v 4.5355 h -37.03937 v 1.5118 h 37.03937 v 4.5354 h -37.03937 v -4.5354 -1.5118 -4.5355 -8.3149 -41.5748 h -2.26772 v 41.5748 h -7.55906 v -41.5748 h -2.26771 v 41.5748 h -7.55906 v -41.5748 h -2.26771 v 41.5748 h -7.55906 v 6.8031 h 27.2126 v 6.0473 h -27.2126 v 1.5118 h 27.2126 v 6.0472 h -27.2126 v -6.0472 -1.5118 -6.0473 -6.8031 -41.5748 h -2.26771 v 41.5748 h -7.55906 v -41.5748 h -2.26772 v 41.5748 h -7.55905 v -41.5748 h -2.26772 v 41.5748 h -7.55905 v 6.0472 h 27.2126 v 6.8032 h -27.2126 v 1.5118 h 27.2126 v 6.8031 h -27.2126 v -6.8031 -1.5118 -6.8032 -6.0472 -41.5748 h -2.26772 v 41.5748 h -7.55905 v -41.5748 h -2.26772 v 41.5748 h -7.55906 v -41.5748 h -2.26771 v 41.5748 h -7.55906 V 1056 h 27.2126 v 7.5591 h -27.2126 v 1.5118 h 27.2126 v 7.559 h -27.2126 v -7.559 -1.5118 -7.5591 -5.2913 -41.5748 h -2.26771 v 41.5748 h -7.55906 v -41.5748 h -2.26772 v 41.5748 h -7.55905 v -41.5748 h -2.26772 v 41.5748 h -7.559053 v 4.5354 h 27.212603 v 8.315 H 95.622047 v 1.5118 h 27.212603 v 8.3149 H 95.622047 v -8.3149 -1.5118 -8.315 z"
         style="fill:#0000ff;stroke:#000000;stroke-width:0;stroke-miterlimit:4;stroke-dasharray:none"
         id="path480" />
    </g>
    <g
       inkscape:label="shield"
       id="g492"
       transform="matrix(0.26458333,0,0,0.26458333,288.65109,135.77292)"
       style="fill:#aad400;stroke-width:0.37795275;stroke-miterlimit:4;stroke-dasharray:none">
      <path
         inkscape:connector-curvature="0"
         d="m -619.84252,1161.8268 v -78.6142 h 526.488189 v 78.6142 z"
         style="fill:#aad400;stroke:#000000;stroke-width:0;stroke-miterlimit:4;stroke-dasharray:none"
         id="path484" />
      <path
         inkscape:connector-curvature="0"
         d="m 1.511811,1337.8772 v -49.0583 h -3.023622 v 49.0583 h -9.826772 v 30.3118 h -5.669291 v 37.7953 h 34.015748 v -37.7953 h -5.669291 v -30.3118 z"
         style="fill:#aad400;stroke:#000000;stroke-width:0;stroke-miterlimit:4;stroke-dasharray:none"
         id="path486" />
      <path
         inkscape:connector-curvature="0"
         d="m -17.007874,876.85039 h 5.669291 v 30.31181 h 9.826772 v 49.05827 H 1.511811 V 907.1622 h 9.826772 v -30.31181 h 5.669291 v -37.79527 h -34.015748 z"
         style="fill:#aad400;stroke:#000000;stroke-width:0.37795275;stroke-miterlimit:4;stroke-dasharray:none"
         id="path488" />
      <path
         inkscape:connector-curvature="0"
         d="m 93.354331,1161.8268 v -78.6142 H 619.84252 v 78.6142 z"
         style="fill:#aad400;stroke:#000000;stroke-width:0;stroke-miterlimit:4;stroke-dasharray:none"
         id="path490" />
    </g>
  </g>
</svg>
